<?xml version="1.0" encoding="UTF-8" standalone="no"?>
<svg
   xmlns:dc="http://purl.org/dc/elements/1.1/"
   xmlns:cc="http://creativecommons.org/ns#"
   xmlns:rdf="http://www.w3.org/1999/02/22-rdf-syntax-ns#"
   xmlns:svg="http://www.w3.org/2000/svg"
   xmlns="http://www.w3.org/2000/svg"
   viewBox="0 0 171.97003 186.55054"
   height="5.2648711cm"
   width="4.8533764cm"
   xml:space="preserve"
   version="1.1"
   id="svg2"><metadata
     id="metadata8"><rdf:RDF><cc:Work
         rdf:about=""><dc:format>image/svg+xml</dc:format><dc:type
           rdf:resource="http://purl.org/dc/dcmitype/StillImage" /><dc:title></dc:title></cc:Work></rdf:RDF></metadata><defs
     id="defs6"><clipPath
       id="clipPath20"
       clipPathUnits="userSpaceOnUse"><path
         id="path22"
         d="m 0,0 595.276,0 0,841.89 L 0,841.89 0,0 Z" /></clipPath><clipPath
       id="clipPath96"
       clipPathUnits="userSpaceOnUse"><path
         id="path98"
         d="m 0,0 595.276,0 0,841.89 L 0,841.89 0,0 Z" /></clipPath><clipPath
       id="clipPath128"
       clipPathUnits="userSpaceOnUse"><path
         id="path130"
         d="m 0,0 595.276,0 0,841.89 L 0,841.89 0,0 Z" /></clipPath><clipPath
       id="clipPath216"
       clipPathUnits="userSpaceOnUse"><path
         id="path218"
         d="m 0,0 595.276,0 0,841.89 L 0,841.89 0,0 Z" /></clipPath><clipPath
       id="clipPath264"
       clipPathUnits="userSpaceOnUse"><path
         id="path266"
         d="m 0,0 595.276,0 0,841.89 L 0,841.89 0,0 Z" /></clipPath><clipPath
       id="clipPath352"
       clipPathUnits="userSpaceOnUse"><path
         id="path354"
         d="m 0,0 595.276,0 0,841.89 L 0,841.89 0,0 Z" /></clipPath></defs><g
     transform="matrix(1.25,0,0,-1.25,-77.26927,613.36016)"
     id="g10"><g
       transform="translate(-133.7749,201.55418)"
       id="g3837"><g
         id="g132"
         transform="translate(257.9545,283.9059)"><path
           d="m 0,0 0.679,0 c 7.006,0 14.013,0.01 21.019,-0.005 2.542,-0.005 5.074,-0.214 7.588,-0.603 1.512,-0.234 3.008,-0.543 4.492,-0.907 1.512,-0.371 3.006,-0.801 4.472,-1.32 2.47,-0.871 4.875,-1.892 7.21,-3.09 2.846,-1.462 5.525,-3.18 8.048,-5.141 1.681,-1.306 3.241,-2.752 4.754,-4.248 1.535,-1.516 2.949,-3.135 4.258,-4.849 1.372,-1.797 2.609,-3.677 3.7,-5.657 0.712,-1.294 1.376,-2.611 1.983,-3.96 0.862,-1.918 1.578,-3.886 2.135,-5.912 0.289,-1.049 0.501,-2.116 0.746,-3.176 0.38,-1.645 0.607,-3.313 0.705,-4.997 0.041,-0.673 0.089,-1.345 0.102,-2.019 0.028,-1.425 0.088,-2.853 0.042,-4.278 -0.078,-2.474 -0.581,-4.884 -1.321,-7.242 -0.496,-1.583 -1.083,-3.134 -1.712,-4.67 -0.928,-2.265 -2.118,-4.384 -3.56,-6.363 -0.363,-0.5 -0.736,-0.993 -1.12,-1.51 0.071,-0.121 0.126,-0.237 0.201,-0.337 1.555,-2.083 2.894,-4.3 4.019,-6.641 1.287,-2.672 2.211,-5.474 2.831,-8.373 0.436,-2.034 0.619,-4.1 0.668,-6.175 0.033,-1.503 -0.026,-3.007 -0.047,-4.511 -0.022,-1.505 -0.154,-3.003 -0.397,-4.486 -0.339,-2.071 -0.808,-4.111 -1.433,-6.121 -0.859,-2.76 -2.036,-5.375 -3.419,-7.903 -1.386,-2.533 -3.05,-4.878 -4.858,-7.123 -1.748,-2.167 -3.753,-4.087 -5.784,-5.975 -1.329,-1.236 -2.765,-2.349 -4.241,-3.41 -1.729,-1.244 -3.524,-2.377 -5.385,-3.408 -2.292,-1.27 -4.667,-2.364 -7.124,-3.279 -2.651,-0.989 -5.369,-1.741 -8.147,-2.279 -1.323,-0.257 -2.656,-0.458 -3.999,-0.584 -1.832,-0.171 -3.665,-0.354 -5.507,-0.361 -3.684,-0.011 -7.368,-0.025 -11.053,-0.025 -6.719,0.002 -13.441,0.022 -20.161,0.024 -15.128,0.003 -30.257,0 -45.386,10e-4 -0.26,0 -0.519,-0.015 -0.779,0.007 -0.145,0.013 -0.316,0.05 -0.425,0.139 -0.514,0.416 -0.975,0.865 -0.809,1.63 0.037,0.175 0.004,0.363 0.004,0.545 0.011,20.422 0.029,40.843 0.032,61.266 10e-4,11.495 -0.024,22.991 -0.03,34.486 -0.002,3.71 0.029,7.42 0.031,11.131 0.004,9.524 0,19.046 0.002,28.571 0,0.307 0.012,0.615 0.02,0.927 0.259,0.174 0.501,0.322 0.728,0.49 1.548,1.144 2.007,3.258 1.08,4.943 -0.929,1.69 -2.961,2.448 -4.751,1.739 -1.361,-0.54 -2.203,-1.55 -2.415,-3.003 -0.227,-1.543 0.319,-2.803 1.579,-3.738 0.226,-0.167 0.466,-0.311 0.656,-0.436 0.025,-0.093 0.033,-0.118 0.038,-0.144 0.003,-0.026 0.003,-0.051 0.005,-0.077 0.001,-0.027 0.002,-0.053 0.002,-0.078 0,-0.026 0,-0.052 -10e-4,-0.078 -0.002,-0.026 -0.003,-0.052 -0.006,-0.077 -0.008,-0.051 -0.016,-0.103 -0.025,-0.154 -0.004,-0.026 -0.009,-0.051 -0.013,-0.076 -0.003,-0.027 -0.004,-0.052 -0.005,-0.078 -10e-4,-0.026 -0.002,-0.052 -0.003,-0.078 -10e-4,-0.026 -0.002,-0.052 -0.002,-0.077 0,-0.027 0,-0.053 -0.001,-0.078 l 0,-0.079 0,-0.077 c -10e-4,-0.027 -10e-4,-0.052 -10e-4,-0.079 l 0,-0.077 0,-44.53 0,-0.234 0,-0.155 c 10e-4,-0.027 10e-4,-0.052 10e-4,-0.078 l 0,-0.078 c 0.001,-0.025 0.001,-0.051 0.002,-0.078 10e-4,-0.026 10e-4,-0.05 0.002,-0.078 10e-4,-0.025 0.003,-0.051 0.004,-0.077 0.003,-0.025 0.004,-0.051 0.009,-0.078 0.007,-0.051 0.017,-0.102 0.023,-0.153 0.004,-0.026 0.007,-0.052 0.009,-0.078 0.003,-0.025 0.006,-0.052 0.007,-0.077 0.002,-0.025 0.002,-0.052 0.003,-0.079 10e-4,-0.025 10e-4,-0.052 0.002,-0.077 0,-0.026 0,-0.052 0.001,-0.078 l 0,-0.078 0,-0.078 0,-0.077 0,-0.234 0,-22.031 0,-0.156 0,-0.078 0,-0.078 c -0.001,-0.026 -0.001,-0.051 -0.002,-0.078 0,-0.025 0,-0.051 -10e-4,-0.077 -10e-4,-0.026 -0.003,-0.052 -0.005,-0.078 -0.002,-0.027 -0.002,-0.052 -0.005,-0.078 -0.011,-0.077 -0.022,-0.153 -0.033,-0.23 -0.005,-0.025 -0.009,-0.052 -0.01,-0.079 -10e-4,-0.025 -10e-4,-0.051 -0.002,-0.077 -0.001,-0.026 -0.002,-0.051 -0.003,-0.077 l 0,-0.079 c -0.001,-0.024 -0.001,-0.051 -0.001,-0.077 l 0,-0.077 c 0,-0.026 -10e-4,-0.053 -10e-4,-0.078 l 0,-0.079 0,-69.442 0,-0.233 0,-0.078 c 0,-0.025 0,-0.051 10e-4,-0.078 l 0,-0.078 c 0,-0.025 0,-0.051 0.001,-0.077 0,-0.026 10e-4,-0.052 0.002,-0.078 0.001,-0.025 0.001,-0.051 0.002,-0.078 10e-4,-0.026 0.005,-0.051 0.008,-0.078 0.004,-0.024 0.004,-0.051 0.012,-0.076 0.008,-0.023 0.021,-0.046 0.034,-0.067 0.012,-0.023 0.028,-0.044 0.082,-0.125 0.24,-0.005 0.521,-0.017 0.802,-0.018 15.284,-0.039 30.567,0.059 45.85,-0.054 7.059,-0.052 14.117,-0.016 21.175,-0.005 4.671,0.005 9.34,0.037 14.009,0.06 0.233,0.001 0.466,0.018 0.7,0.033 0.982,0.06 1.965,0.107 2.946,0.187 0.54,0.044 1.077,0.135 1.613,0.213 0.462,0.068 0.92,0.144 1.38,0.225 1.072,0.187 2.149,0.347 3.213,0.574 2.028,0.43 4.033,0.955 6.004,1.604 2.341,0.77 4.634,1.664 6.852,2.735 1.469,0.708 2.916,1.472 4.339,2.27 2.378,1.335 4.633,2.861 6.781,4.538 1.799,1.405 3.541,2.876 5.108,4.546 1.136,1.211 2.251,2.441 3.281,3.743 1.544,1.952 2.973,3.986 4.243,6.134 1.322,2.235 2.495,4.539 3.472,6.944 0.665,1.633 1.25,3.295 1.703,4.996 0.379,1.426 0.698,2.868 0.985,4.316 0.349,1.756 0.561,3.537 0.639,5.321 0.082,1.888 0.126,3.783 -0.107,5.672 -0.247,2.008 -0.499,4.012 -1.076,5.958 -0.354,1.192 -0.211,2.373 -0.54,3.569 -0.353,1.279 -0.818,2.515 -1.334,3.73 -0.372,0.88 -0.846,1.719 -1.307,2.558 -0.675,1.231 -1.484,2.376 -2.315,3.503 -0.091,0.125 -0.181,0.255 -0.257,0.389 -0.111,0.196 -0.105,0.399 0.01,0.592 0.079,0.133 0.171,0.26 0.26,0.387 0.461,0.658 0.939,1.306 1.382,1.976 0.976,1.474 1.845,3.007 2.465,4.665 0.58,1.552 1.126,3.115 1.676,4.678 0.793,2.257 0.818,4.57 1.057,6.952 0.039,0.387 0.119,0.773 0.116,1.159 -0.016,1.735 0.063,3.47 -0.114,5.206 -0.235,2.322 -0.463,4.641 -0.985,6.92 -0.242,1.061 -0.443,2.134 -0.741,3.179 -0.432,1.517 -0.881,3.035 -1.469,4.504 -0.442,1.106 -0.872,2.22 -1.374,3.3 -0.711,1.525 -1.472,3.03 -2.336,4.477 -0.492,0.824 -0.968,1.66 -1.509,2.451 -0.729,1.07 -1.497,2.112 -2.278,3.148 -0.983,1.305 -2.068,2.53 -3.218,3.691 -1.334,1.344 -2.783,2.561 -4.285,3.718 -1.44,1.11 -2.925,2.149 -4.466,3.11 -3.199,1.992 -6.569,3.644 -10.09,4.986 C 40.567,-0.408 38.8,0.186 37.003,0.69 35.279,1.174 33.546,1.611 31.781,1.902 30.528,2.109 29.279,2.341 28.022,2.512 26.817,2.676 25.605,2.8 24.393,2.9 23.388,2.982 22.376,3.046 21.368,3.048 14.517,3.062 7.667,3.055 0.816,3.055 l -0.96,0 C -0.64,3.93 -1.306,4.602 -2.244,4.96 -3.181,5.317 -4.122,5.312 -5.055,4.95 -6.592,4.35 -7.59,2.779 -7.488,1.141 c 0.104,-1.656 1.275,-3.075 2.866,-3.495 0.834,-0.219 1.645,-0.162 2.438,0.158 C -1.168,-1.787 -0.489,-1.028 0,0 m -26.768,-2.22 0,-0.935 c 0,-14.039 0.001,-28.078 -0.003,-42.117 0,-1.098 0.108,-0.794 -0.644,-1.548 -6.877,-6.884 -13.761,-13.762 -20.64,-20.645 -0.837,-0.839 -0.7,-0.52 -0.701,-1.682 -0.003,-20.657 -0.002,-41.314 -0.002,-61.97 0,-0.208 -0.01,-0.416 0.005,-0.622 0.009,-0.148 0.052,-0.292 0.087,-0.48 l 0.882,0 c 14.868,0 29.739,-0.002 44.607,0.001 0.992,0 0.725,-0.103 1.414,0.586 3.233,3.227 6.461,6.457 9.69,9.686 0.219,0.22 0.444,0.433 0.666,0.651 l 0.489,0 c 2.933,0 5.865,-0.006 8.797,0.004 1.165,0.004 2.325,-0.036 3.49,0.119 1.311,0.173 2.627,0.316 3.923,0.579 3.589,0.728 6.968,2.012 10.156,3.804 4.125,2.317 7.688,5.273 10.482,9.124 2.669,3.676 4.627,7.674 5.606,12.129 0.033,0.147 0.101,0.289 0.147,0.42 0.252,0.132 0.488,0.241 0.71,0.373 1.509,0.892 2.219,2.664 1.744,4.363 -0.383,1.377 -1.641,2.769 -3.7,2.804 -1.591,0.027 -3.043,-0.999 -3.606,-2.501 -0.568,-1.504 -0.145,-3.192 1.07,-4.253 0.212,-0.186 0.44,-0.351 0.683,-0.545 -0.04,-0.239 -0.07,-0.469 -0.118,-0.694 -0.817,-3.796 -2.49,-7.186 -4.881,-10.231 -1.173,-1.494 -2.485,-2.859 -3.87,-4.154 -2.307,-2.158 -4.848,-3.979 -7.703,-5.35 -3.949,-1.896 -8.116,-2.799 -12.493,-2.783 -3.841,0.014 -7.682,-0.006 -11.522,0.014 -0.51,0.002 -0.875,-0.143 -1.225,-0.51 -1.019,-1.072 -2.068,-2.115 -3.112,-3.163 -2.254,-2.259 -4.513,-4.515 -6.77,-6.772 -0.183,-0.182 -0.371,-0.36 -0.58,-0.562 l -1.001,0 -39.236,0 c -0.181,0 -0.363,-0.003 -0.544,0 -0.677,0.015 -1.056,0.379 -1.077,1.037 -0.003,0.156 -0.002,0.31 -0.002,0.466 0,19.1 -0.001,38.198 0.002,57.297 0.001,1.037 -0.094,0.76 0.623,1.478 6.861,6.866 13.724,13.727 20.586,20.59 0.256,0.257 0.507,0.521 0.79,0.81 l 0,45.251 c 1.912,1.363 2.567,2.954 1.962,4.742 -0.5,1.482 -1.868,2.661 -3.749,2.631 -1.695,-0.029 -3.178,-1.205 -3.616,-2.813 -0.365,-1.346 -0.152,-3.3 2.184,-4.629 m 83.877,-67.705 c 0.183,0.269 0.341,0.503 0.502,0.736 1.2,1.733 2.275,3.536 2.976,5.535 0.555,1.59 1.109,3.183 1.599,4.795 0.628,2.067 0.994,4.187 1.039,6.353 0.061,2.94 -0.204,5.857 -0.711,8.75 -0.971,5.529 -2.923,10.69 -5.853,15.479 -2.228,3.637 -4.949,6.84 -8.3,9.506 -4.561,3.631 -9.643,6.259 -15.188,8.015 -2.752,0.871 -5.565,1.472 -8.427,1.825 -1.905,0.234 -3.817,0.38 -5.741,0.374 C 12.958,-8.575 6.912,-8.564 0.865,-8.564 l -0.95,0 c -0.451,0.883 -1.074,1.561 -1.961,1.957 -0.914,0.41 -1.854,0.466 -2.808,0.15 -1.567,-0.518 -2.644,-2.02 -2.64,-3.671 0.006,-1.679 1.124,-3.183 2.741,-3.67 0.791,-0.239 1.583,-0.222 2.37,0.045 1.041,0.352 1.751,1.079 2.294,2.05 l 0.927,0 c 5.864,0 11.728,0.006 17.594,-0.006 1.218,-0.001 2.436,-0.047 3.653,-0.109 2.572,-0.129 5.104,-0.542 7.59,-1.208 7.653,-2.05 14.234,-5.911 19.679,-11.682 4.275,-4.532 7.284,-9.805 9.114,-15.753 0.726,-2.362 1.175,-4.782 1.412,-7.242 0.151,-1.575 0.19,-3.157 0.181,-4.74 -0.007,-1.329 -0.159,-2.638 -0.392,-3.943 -0.342,-1.921 -0.937,-3.77 -1.593,-5.602 -1.007,-2.807 -2.362,-5.418 -4.218,-7.761 -0.059,-0.074 -0.085,-0.175 -0.125,-0.259 0.147,-0.218 0.278,-0.411 0.411,-0.603 1.302,-1.883 2.429,-3.862 3.341,-5.964 1.362,-3.144 2.19,-6.418 2.467,-9.837 0.105,-1.298 0.097,-2.592 0.103,-3.889 0.008,-1.611 -0.123,-3.214 -0.344,-4.808 -0.595,-4.281 -1.936,-8.321 -3.997,-12.122 -1.857,-3.421 -4.157,-6.505 -6.893,-9.276 -2.123,-2.149 -4.409,-4.09 -6.932,-5.755 -6.858,-4.523 -14.391,-6.801 -22.607,-6.818 -2.024,-0.004 -4.048,0 -6.073,0 l -0.865,0 c -0.429,0.897 -1.026,1.597 -1.904,2.021 -0.878,0.426 -1.789,0.511 -2.727,0.259 -1.595,-0.427 -2.729,-1.878 -2.808,-3.532 -0.093,-1.943 1.203,-3.319 2.465,-3.778 0.809,-0.296 1.617,-0.345 2.444,-0.105 1.077,0.313 1.844,1.019 2.419,1.996 l 0.784,0 c 1.739,0 3.478,0 5.217,-0.001 1.322,-0.001 2.642,0.014 3.963,0.135 1.784,0.164 3.555,0.401 5.311,0.756 4.978,1.005 9.639,2.834 14.018,5.395 3.374,1.975 6.488,4.299 9.246,7.077 2.201,2.215 4.107,4.676 5.788,7.307 2.064,3.229 3.708,6.656 4.85,10.319 1.093,3.511 1.711,7.105 1.813,10.782 0.069,2.473 -0.151,4.919 -0.632,7.348 -0.379,1.914 -0.991,3.759 -1.555,5.62 -0.647,2.124 -1.613,4.099 -2.838,5.947 -0.344,0.518 -0.697,1.031 -1.089,1.609 M -0.036,-82.039 c 0.296,0.006 0.579,0.016 0.861,0.016 6.046,0 12.092,10e-4 18.137,-0.002 0.545,0 1.09,-0.012 1.632,-0.056 1.814,-0.147 3.414,-0.724 4.702,-2.111 0.886,-0.953 1.423,-2.018 1.623,-3.286 0.143,-0.902 0.152,-1.809 0.117,-2.716 -0.053,-1.403 -0.514,-2.639 -1.593,-3.593 -0.117,-0.103 -0.225,-0.217 -0.332,-0.33 -0.77,-0.81 -1.718,-1.328 -2.773,-1.659 -0.947,-0.297 -1.923,-0.417 -2.915,-0.417 -10.171,0.001 -20.342,0 -30.513,0.001 -0.18,0 -0.363,0.004 -0.544,0.002 -0.191,-0.003 -0.344,0.067 -0.493,0.188 -0.31,0.248 -0.426,0.546 -0.42,0.947 0.02,1.348 0.007,2.698 0.007,4.048 l 0,87.801 0,1.043 c 1.22,0.968 1.568,1.357 1.858,2.117 0.347,0.907 0.363,1.829 0.033,2.74 -0.504,1.39 -1.816,2.536 -3.665,2.529 -1.698,-0.007 -3.164,-1.147 -3.642,-2.772 -0.235,-0.798 -0.212,-1.592 0.065,-2.371 0.374,-1.057 1.116,-1.789 2.143,-2.29 l 0,-1.102 0,-94.729 c 0,-0.286 -0.009,-0.572 0.005,-0.857 0.007,-0.145 0.056,-0.288 0.094,-0.468 l 1.043,0 c 11.363,0 22.727,0 34.092,0.001 0.565,0 1.139,-0.073 1.66,0.246 0.105,0.063 0.252,0.054 0.379,0.081 1.508,0.334 2.913,0.919 4.213,1.757 2.769,1.787 4.234,4.34 4.459,7.612 0.058,0.857 -0.046,1.71 -0.184,2.556 -0.245,1.499 -0.705,2.92 -1.536,4.207 -0.414,0.64 -0.92,1.181 -1.541,1.627 -1.591,1.144 -3.385,1.755 -5.28,2.178 -1.08,0.239 -2.152,0.254 -3.235,0.254 -5.89,10e-4 -11.781,0 -17.67,10e-4 -0.308,0 -0.616,0.012 -0.917,0.018 -0.51,0.829 -1.133,1.473 -2.013,1.822 -0.905,0.357 -1.825,0.38 -2.741,0.064 -1.564,-0.54 -2.609,-2.064 -2.573,-3.713 0.037,-1.654 1.147,-3.117 2.733,-3.597 0.821,-0.25 1.638,-0.225 2.444,0.063 1.059,0.379 1.766,1.146 2.28,2.15 m -26.732,19.819 0,-1.01 0,-45.85 c 0,-0.26 -0.01,-0.52 0.003,-0.779 0.008,-0.146 0.052,-0.292 0.079,-0.445 0.369,-0.091 0.706,-0.056 1.04,-0.056 14.946,-0.002 29.892,-0.002 44.839,-0.001 0.669,0 1.347,-0.061 1.994,0.196 0.093,0.037 0.204,0.032 0.307,0.046 2.841,0.339 5.519,1.194 8.023,2.571 3.443,1.895 6.334,4.405 8.494,7.718 1.987,3.049 3.069,6.384 3.209,10.022 0.055,1.433 -0.111,2.851 -0.353,4.257 -0.684,3.985 -2.382,7.488 -5.057,10.519 -0.151,0.173 -0.295,0.355 -0.435,0.523 0.051,0.231 0.092,0.434 0.139,0.635 0.579,2.449 -1.635,5.284 -4.778,4.482 -2.078,-0.529 -3.287,-2.685 -2.698,-4.739 0.618,-2.167 2.783,-3.205 4.686,-2.686 0.198,0.053 0.396,0.1 0.577,0.147 0.091,-0.07 0.159,-0.108 0.213,-0.162 1.189,-1.182 2.154,-2.521 2.875,-4.037 0.946,-1.994 1.442,-4.106 1.571,-6.299 0.06,-1.01 0.036,-2.024 0.044,-3.035 0.026,-3.031 -0.899,-5.761 -2.609,-8.245 -0.874,-1.271 -1.945,-2.363 -3.053,-3.42 -1.626,-1.551 -3.451,-2.82 -5.509,-3.739 -2.384,-1.064 -4.883,-1.546 -7.485,-1.546 -13.831,0.002 -27.661,0.001 -41.491,0.001 -0.13,0 -0.261,-0.001 -0.389,0.002 -0.628,0.017 -1.008,0.387 -1.026,0.997 -0.006,0.183 -0.002,0.364 -0.002,0.546 l 0,14.557 c 0,9.342 0,18.682 10e-4,28.024 0,0.308 0.01,0.616 0.016,0.887 1.916,1.383 2.555,2.965 1.954,4.753 -0.511,1.517 -1.986,2.667 -3.758,2.61 -1.664,-0.055 -3.109,-1.142 -3.586,-2.738 -0.536,-1.794 0.178,-3.395 2.165,-4.706 m 19.673,-55.865 -0.946,0 -24.91,0 c -0.182,0 -0.363,-0.003 -0.545,0.002 -0.674,0.019 -1.039,0.384 -1.058,1.058 -0.003,0.105 -10e-4,0.208 -10e-4,0.312 l 0,42.814 0,0.799 c 0.854,0.482 1.522,1.118 1.889,2.021 0.378,0.93 0.398,1.873 0.062,2.814 -0.556,1.555 -2.095,2.583 -3.743,2.528 -1.624,-0.057 -3.06,-1.15 -3.544,-2.701 -0.246,-0.793 -0.241,-1.586 0.02,-2.373 0.353,-1.064 1.082,-1.809 2.099,-2.332 0.003,-0.352 0.009,-0.687 0.009,-1.02 10e-4,-15.283 10e-4,-30.568 10e-4,-45.851 0,-0.259 -0.006,-0.519 0.003,-0.777 0.006,-0.148 0.04,-0.293 0.063,-0.456 0.145,-0.019 0.244,-0.041 0.344,-0.043 0.258,-0.006 0.519,-0.005 0.778,-0.005 9.471,0 18.943,0 28.413,-0.001 0.306,0 0.618,0.047 0.898,-0.053 1.151,-1.971 2.659,-2.746 4.481,-2.325 1.689,0.391 2.89,1.777 2.991,3.542 0.1,1.774 -0.97,3.217 -2.446,3.794 -1.755,0.687 -3.352,0.127 -4.858,-1.747 m 6.81,57.515 0.988,0 c 6.38,0 12.762,0 19.143,0.002 0.259,0 0.522,-0.013 0.776,0.024 0.538,0.078 1.07,0.186 1.605,0.282 1.567,0.28 3.066,0.751 4.446,1.571 0.986,0.587 1.754,1.369 2.284,2.383 0.215,0.413 0.429,0.833 0.584,1.271 1.022,2.924 0.865,5.811 -0.354,8.642 -0.537,1.247 -1.389,2.228 -2.572,2.932 -1.351,0.805 -2.791,1.365 -4.328,1.677 -1.165,0.236 -2.332,0.39 -3.534,0.382 -5.992,-0.031 -11.984,-0.014 -17.976,-0.012 -0.307,0 -0.617,-0.039 -0.914,0.05 -0.097,0.15 -0.176,0.283 -0.264,0.411 -0.87,1.258 -2.066,1.84 -3.596,1.734 -1.92,-0.133 -3.695,-1.902 -3.474,-4.205 0.157,-1.642 1.315,-2.948 2.921,-3.357 1.543,-0.394 3.161,0.224 4.093,1.568 0.132,0.189 0.255,0.385 0.404,0.61 0.307,0.005 0.615,0.013 0.923,0.013 6.148,10e-4 12.295,0.006 18.443,-0.004 0.672,-0.002 1.348,-0.045 2.017,-0.12 1.77,-0.196 3.273,-0.922 4.442,-2.302 0.587,-0.691 0.98,-1.465 1.128,-2.354 0.216,-1.287 0.212,-2.58 0.004,-3.871 -0.098,-0.624 -0.313,-1.211 -0.698,-1.713 -0.678,-0.879 -1.503,-1.56 -2.597,-1.889 -1.126,-0.338 -2.275,-0.511 -3.447,-0.512 -6.511,-0.004 -13.021,-0.002 -19.533,0 -0.203,0 -0.406,0.028 -0.587,0.041 -1.125,2.033 -2.634,2.853 -4.495,2.469 -1.617,-0.336 -2.871,-1.76 -3.029,-3.442 -0.151,-1.624 0.809,-3.216 2.334,-3.867 0.765,-0.326 1.552,-0.393 2.361,-0.215 1.069,0.235 1.863,0.871 2.502,1.801 m 52.159,13.287 c -0.057,0.284 -0.11,0.538 -0.158,0.792 -0.049,0.255 -0.086,0.511 -0.138,0.766 -0.82,4.037 -2.363,7.779 -4.615,11.227 -1.439,2.201 -3.061,4.253 -5.01,6.03 -3.683,3.356 -7.929,5.73 -12.651,7.278 -2.4,0.786 -4.865,1.276 -7.375,1.52 -0.823,0.081 -1.641,0.194 -2.476,0.192 -6.201,-0.02 -12.404,-0.011 -18.605,-0.011 l -0.958,0 c -0.455,0.871 -1.086,1.539 -1.98,1.923 -0.894,0.384 -1.813,0.427 -2.735,0.131 -1.588,-0.511 -2.661,-1.989 -2.666,-3.644 -0.005,-1.65 1.076,-3.156 2.641,-3.668 0.814,-0.268 1.636,-0.266 2.447,0.006 1.035,0.346 1.769,1.054 2.293,2.042 l 0.939,0 c 6.227,0 12.455,-0.005 18.684,0.004 1.926,0.002 3.832,-0.155 5.727,-0.496 3.511,-0.633 6.788,-1.879 9.828,-3.745 2.493,-1.532 4.679,-3.428 6.694,-5.542 3.516,-3.687 5.745,-8.03 6.729,-13.018 0.124,-0.628 0.296,-1.26 0.231,-1.944 -0.844,-0.465 -1.494,-1.117 -1.855,-2.02 -0.36,-0.901 -0.385,-1.818 -0.057,-2.737 0.561,-1.57 2.088,-2.626 3.715,-2.571 1.731,0.06 3.214,1.24 3.634,2.891 0.473,1.859 -0.274,3.383 -2.283,4.594 m -97.372,-7.086 c -0.088,0.929 -0.067,51.663 0.021,52.25 0.226,0.159 0.468,0.31 0.689,0.487 1.46,1.161 1.869,3.204 0.977,4.842 -0.906,1.664 -2.893,2.438 -4.669,1.779 -1.467,-0.542 -2.335,-1.611 -2.524,-3.167 -0.183,-1.49 0.387,-2.685 1.577,-3.586 0.204,-0.155 0.426,-0.285 0.611,-0.408 0.025,-0.094 0.048,-0.144 0.048,-0.194 0.005,-17.092 0.008,-34.187 0.009,-51.281 0,-0.182 -0.009,-0.361 -0.015,-0.544 -10e-4,-0.026 -0.006,-0.052 -0.016,-0.076 -0.009,-0.022 -0.026,-0.042 -0.084,-0.131 -0.766,-0.39 -1.418,-1.001 -1.812,-1.86 -0.407,-0.887 -0.478,-1.802 -0.196,-2.731 0.526,-1.729 2.104,-2.727 3.668,-2.734 1.601,-0.007 3.162,1.004 3.697,2.696 0.562,1.778 -0.117,3.374 -1.981,4.658 m 83.155,6.92 c -0.254,-0.192 -0.467,-0.339 -0.667,-0.503 -1.456,-1.216 -1.812,-3.31 -0.842,-4.932 0.975,-1.626 2.995,-2.324 4.74,-1.596 1.377,0.576 2.207,1.622 2.375,3.118 0.178,1.588 -0.441,2.833 -1.774,3.718 -0.149,0.101 -0.31,0.195 -0.477,0.257 -0.226,0.084 -0.315,0.255 -0.364,0.466 -0.072,0.301 -0.133,0.607 -0.215,0.906 -1.188,4.371 -3.483,8.001 -7.14,10.737 -3.133,2.345 -6.617,3.847 -10.484,4.458 -0.59,0.092 -1.193,0.118 -1.767,0.265 -0.464,0.117 -0.919,0.132 -1.383,0.132 -6.279,10e-4 -12.556,10e-4 -18.835,10e-4 l -0.952,0 c -0.474,0.864 -1.113,1.528 -2.012,1.902 -0.925,0.384 -1.861,0.416 -2.806,0.07 -1.566,-0.57 -2.595,-2.076 -2.547,-3.73 0.049,-1.649 1.172,-3.112 2.757,-3.579 0.794,-0.235 1.585,-0.213 2.371,0.058 1.037,0.358 1.747,1.081 2.283,2.069 l 0.92,0 c 5.993,0 11.985,-0.001 17.978,0.002 1.116,0 2.227,-0.028 3.338,-0.162 2.314,-0.278 4.518,-0.914 6.586,-1.996 1.834,-0.958 3.421,-2.233 4.867,-3.709 1.477,-1.508 2.584,-3.236 3.313,-5.209 0.323,-0.875 0.592,-1.765 0.737,-2.743 m -72.155,3.895 c -0.022,0.079 -0.046,0.131 -0.046,0.18 -0.006,13.493 -0.009,26.987 -0.01,40.481 0,0.207 0.007,0.414 0.014,0.622 10e-4,0.024 0.015,0.05 0.026,0.073 0.009,0.023 0.022,0.045 0.05,0.1 0.186,0.131 0.405,0.27 0.609,0.428 1.522,1.188 1.933,3.309 0.969,4.969 -0.967,1.666 -3.023,2.382 -4.791,1.632 -1.348,-0.572 -2.163,-1.61 -2.351,-3.059 -0.191,-1.48 0.349,-2.698 1.541,-3.61 0.224,-0.171 0.467,-0.317 0.677,-0.458 0.084,-0.982 0.064,-40.701 -0.021,-41.314 -0.221,-0.146 -0.464,-0.293 -0.691,-0.463 -1.357,-1.009 -1.892,-2.794 -1.324,-4.383 0.558,-1.555 2.079,-2.598 3.728,-2.556 1.627,0.043 3.054,1.115 3.561,2.674 0.496,1.525 -0.009,3.204 -1.27,4.2 -0.223,0.176 -0.461,0.333 -0.671,0.484 m 47.922,-27.532 c 0.147,-0.231 0.277,-0.454 0.423,-0.666 0.976,-1.432 2.754,-2.038 4.387,-1.498 1.594,0.527 2.638,1.974 2.638,3.655 0,1.648 -1.018,3.092 -2.562,3.634 -1.569,0.553 -3.305,0.04 -4.325,-1.283 -0.156,-0.202 -0.301,-0.414 -0.435,-0.599 -1.123,-0.09 -13.117,-0.061 -13.731,0.032 -0.16,0.221 -0.317,0.46 -0.497,0.679 -1.218,1.466 -3.293,1.819 -4.926,0.847 -1.658,-0.987 -2.347,-3.041 -1.574,-4.805 0.613,-1.402 1.712,-2.208 3.234,-2.334 1.455,-0.12 2.628,0.463 3.482,1.655 0.163,0.228 0.306,0.471 0.444,0.683 l 13.442,0 z m 25.46,4.826 c 2.82,-2.031 7.16,-7.748 8.03,-10.571 -0.138,-0.207 -0.291,-0.416 -0.424,-0.637 -1.495,-2.514 0.211,-5.705 3.183,-5.827 2.028,-0.083 3.773,1.456 3.958,3.513 0.198,2.191 -1.425,3.88 -3.205,4.128 -0.307,0.043 -0.613,0.079 -0.961,0.123 -1.011,2.185 -2.205,4.27 -3.619,6.229 -1.417,1.964 -3.118,3.662 -4.879,5.193 0.046,0.603 0.133,1.118 0.118,1.63 -0.055,2.041 -1.988,3.97 -4.466,3.557 -2.07,-0.346 -3.594,-2.29 -3.122,-4.606 0.443,-2.181 2.655,-3.486 4.815,-2.895 0.197,0.052 0.394,0.112 0.572,0.163"
           style="fill:#51accb;fill-opacity:1;fill-rule:nonzero;stroke:none"
           id="path134" /></g><g
         id="g136"
         transform="translate(257.9545,283.9059)"><path
           d="m 0,0 c -0.489,-1.028 -1.168,-1.787 -2.184,-2.196 -0.793,-0.32 -1.604,-0.377 -2.438,-0.158 -1.591,0.42 -2.762,1.839 -2.866,3.495 -0.102,1.638 0.896,3.209 2.433,3.809 0.933,0.362 1.874,0.367 2.811,0.01 0.938,-0.358 1.604,-1.03 2.1,-1.905 l 0.96,0 c 6.851,0 13.701,0.007 20.552,-0.007 1.008,-0.002 2.02,-0.066 3.025,-0.148 1.212,-0.1 2.424,-0.224 3.629,-0.388 1.257,-0.171 2.506,-0.403 3.759,-0.61 1.765,-0.291 3.498,-0.728 5.222,-1.212 1.797,-0.504 3.564,-1.098 5.308,-1.763 3.521,-1.342 6.891,-2.994 10.09,-4.986 1.541,-0.961 3.026,-2 4.466,-3.11 1.502,-1.157 2.951,-2.374 4.285,-3.718 1.15,-1.161 2.235,-2.386 3.218,-3.691 0.781,-1.036 1.549,-2.078 2.278,-3.148 0.541,-0.791 1.017,-1.627 1.509,-2.451 0.864,-1.447 1.625,-2.952 2.336,-4.477 0.502,-1.08 0.932,-2.194 1.374,-3.3 0.588,-1.469 1.037,-2.987 1.469,-4.504 0.298,-1.045 0.499,-2.118 0.741,-3.179 0.522,-2.279 0.75,-4.598 0.985,-6.92 0.177,-1.736 0.098,-3.471 0.114,-5.206 0.003,-0.386 -0.077,-0.772 -0.116,-1.159 -0.239,-2.382 -0.264,-4.695 -1.057,-6.952 -0.55,-1.563 -1.096,-3.126 -1.676,-4.678 -0.62,-1.658 -1.489,-3.191 -2.465,-4.665 -0.443,-0.67 -0.921,-1.318 -1.382,-1.976 -0.089,-0.127 -0.181,-0.254 -0.26,-0.387 -0.115,-0.193 -0.121,-0.396 -0.01,-0.592 0.076,-0.134 0.166,-0.264 0.257,-0.389 0.831,-1.127 1.64,-2.272 2.315,-3.503 0.461,-0.839 0.935,-1.678 1.307,-2.558 0.516,-1.215 0.981,-2.451 1.334,-3.73 0.329,-1.196 0.606,-2.248 0.765,-3.673 0.143,-0.919 0.466,-2.72 0.851,-5.854 0.233,-1.889 0.189,-3.784 0.107,-5.672 -0.078,-1.784 -0.29,-3.565 -0.639,-5.321 -0.287,-1.448 -0.606,-2.89 -0.985,-4.316 -0.453,-1.701 -1.038,-3.363 -1.703,-4.996 -0.977,-2.405 -2.15,-4.709 -3.472,-6.944 -1.27,-2.148 -2.699,-4.182 -4.243,-6.134 -1.03,-1.302 -2.145,-2.532 -3.281,-3.743 -1.567,-1.67 -3.309,-3.141 -5.108,-4.546 -2.148,-1.677 -4.403,-3.203 -6.781,-4.538 -1.423,-0.798 -2.87,-1.562 -4.339,-2.27 -2.218,-1.071 -4.511,-1.965 -6.852,-2.735 -1.971,-0.649 -3.976,-1.174 -6.004,-1.604 -1.064,-0.227 -2.141,-0.387 -3.213,-0.574 -0.46,-0.081 -0.918,-0.157 -1.38,-0.225 -0.536,-0.078 -1.073,-0.169 -1.613,-0.213 -0.981,-0.08 -1.964,-0.127 -2.946,-0.187 -0.234,-0.015 -0.467,-0.032 -0.7,-0.033 -4.669,-0.023 -9.338,-0.055 -14.009,-0.06 -7.058,-0.011 -14.116,-0.047 -21.175,0.005 -15.283,0.113 -30.566,0.015 -45.85,0.054 -0.281,0.001 -0.562,0.013 -0.802,0.018 -0.054,0.081 -0.07,0.102 -0.082,0.125 -0.013,0.021 -0.026,0.044 -0.034,0.067 -0.008,0.025 -0.008,0.052 -0.012,0.076 -0.003,0.027 -0.007,0.052 -0.008,0.078 -10e-4,0.027 -10e-4,0.053 -0.002,0.078 -10e-4,0.026 -0.002,0.052 -0.002,0.078 -0.001,0.026 -0.001,0.052 -0.001,0.077 l 0,0.078 c -10e-4,0.027 -10e-4,0.053 -10e-4,0.078 l 0,0.078 0,0.233 0,69.442 0,0.079 c 0,0.025 10e-4,0.052 10e-4,0.078 l 0,0.077 c 0,0.026 0,0.053 0.001,0.077 l 0,0.079 c 10e-4,0.026 0.002,0.051 0.003,0.077 10e-4,0.026 10e-4,0.052 0.002,0.077 0.001,0.027 0.005,0.054 0.01,0.079 0.011,0.077 0.022,0.153 0.033,0.23 0.003,0.026 0.003,0.051 0.005,0.078 0.002,0.026 0.004,0.052 0.005,0.078 10e-4,0.026 10e-4,0.052 10e-4,0.077 10e-4,0.027 10e-4,0.052 0.002,0.078 l 0,0.078 0,0.078 0,0.156 0,22.031 0,0.234 0,0.077 0,0.078 0,0.078 c -0.001,0.026 -0.001,0.052 -0.001,0.078 -10e-4,0.025 -10e-4,0.052 -0.002,0.077 -10e-4,0.027 -10e-4,0.054 -0.003,0.079 -10e-4,0.025 -0.004,0.052 -0.007,0.077 -0.002,0.026 -0.005,0.052 -0.009,0.078 -0.006,0.051 -0.016,0.102 -0.023,0.153 -0.005,0.027 -0.006,0.053 -0.009,0.078 -10e-4,0.026 -0.003,0.052 -0.004,0.077 -0.001,0.028 -0.001,0.052 -0.002,0.078 -10e-4,0.027 -10e-4,0.053 -0.002,0.078 l 0,0.078 c 0,0.026 0,0.051 -10e-4,0.078 l 0,0.155 0,0.234 0,44.53 0,0.077 c 0,0.027 0,0.052 10e-4,0.079 l 0,0.077 0,0.079 c 0.001,0.025 0.001,0.051 0.001,0.078 0,0.025 10e-4,0.051 0.002,0.077 0.001,0.026 0.002,0.052 0.003,0.078 0.001,0.026 0.002,0.051 0.005,0.078 0.004,0.025 0.009,0.05 0.013,0.076 0.009,0.051 0.017,0.103 0.025,0.154 0.003,0.025 0.004,0.051 0.006,0.077 10e-4,0.026 10e-4,0.052 10e-4,0.078 0,0.025 -10e-4,0.051 -0.002,0.078 -0.002,0.026 -0.002,0.051 -0.005,0.077 -0.005,0.026 -0.013,0.051 -0.038,0.144 -0.19,0.125 -0.43,0.269 -0.656,0.436 -1.26,0.935 -1.806,2.195 -1.579,3.738 0.212,1.453 1.054,2.463 2.415,3.003 1.79,0.709 3.822,-0.049 4.751,-1.739 0.927,-1.685 0.468,-3.799 -1.08,-4.943 -0.227,-0.168 -0.469,-0.316 -0.728,-0.49 -0.008,-0.312 -0.02,-0.62 -0.02,-0.927 -0.002,-9.525 0.002,-19.047 -0.002,-28.571 -0.002,-3.711 -0.033,-7.421 -0.031,-11.131 0.006,-11.495 0.031,-22.991 0.03,-34.486 -0.003,-20.423 -0.021,-40.844 -0.032,-61.266 0,-0.182 0.033,-0.37 -0.004,-0.545 -0.166,-0.765 0.295,-1.214 0.809,-1.63 0.109,-0.089 0.28,-0.126 0.425,-0.139 0.26,-0.022 0.519,-0.007 0.779,-0.007 15.129,-10e-4 30.258,0.002 45.386,-10e-4 6.72,-0.002 13.442,-0.022 20.161,-0.024 3.685,0 7.369,0.014 11.053,0.025 1.842,0.007 3.675,0.19 5.507,0.361 1.343,0.126 2.676,0.327 3.999,0.584 2.778,0.538 5.496,1.29 8.147,2.279 2.457,0.915 4.832,2.009 7.124,3.279 1.861,1.031 3.656,2.164 5.385,3.408 1.476,1.061 2.912,2.174 4.241,3.41 2.031,1.888 4.036,3.808 5.784,5.975 1.808,2.245 3.472,4.59 4.858,7.123 1.383,2.528 2.56,5.143 3.419,7.903 0.625,2.01 1.094,4.05 1.433,6.121 0.243,1.483 0.375,2.981 0.397,4.486 0.021,1.504 0.08,3.008 0.047,4.511 -0.049,2.075 -0.232,4.141 -0.668,6.175 -0.62,2.899 -1.544,5.701 -2.831,8.373 -1.125,2.341 -2.464,4.558 -4.019,6.641 -0.075,0.1 -0.13,0.216 -0.201,0.337 0.384,0.517 0.757,1.01 1.12,1.51 1.442,1.979 2.632,4.098 3.56,6.363 0.629,1.536 1.216,3.087 1.712,4.67 0.74,2.358 1.243,4.768 1.321,7.242 0.046,1.425 -0.014,2.853 -0.042,4.278 -0.013,0.674 -0.061,1.346 -0.102,2.019 -0.098,1.684 -0.325,3.352 -0.705,4.997 -0.245,1.06 -0.457,2.127 -0.746,3.176 -0.557,2.026 -1.273,3.994 -2.135,5.912 -0.607,1.349 -1.271,2.666 -1.983,3.96 -1.091,1.98 -2.328,3.86 -3.7,5.657 -1.309,1.714 -2.723,3.333 -4.258,4.849 -1.513,1.496 -3.073,2.942 -4.754,4.248 -2.523,1.961 -5.202,3.679 -8.048,5.141 -2.335,1.198 -4.74,2.219 -7.21,3.09 -1.466,0.519 -2.96,0.949 -4.472,1.32 -1.484,0.364 -2.98,0.673 -4.492,0.907 -2.514,0.389 -5.046,0.598 -7.588,0.603 C 14.692,0.01 7.685,0 0.679,0 L 0,0 Z"
           style="fill:#51accb;fill-opacity:1;fill-rule:nonzero;stroke:none"
           id="path138" /></g><g
         id="g140"
         transform="translate(231.1864,281.6862)"><path
           d="M 0,0 C -2.336,1.329 -2.549,3.283 -2.184,4.629 -1.745,6.237 -0.263,7.413 1.432,7.441 3.313,7.472 4.681,6.292 5.182,4.811 5.786,3.023 5.131,1.431 3.219,0.068 l 0,-45.25 c -0.283,-0.289 -0.533,-0.553 -0.79,-0.81 -6.862,-6.863 -13.725,-13.724 -20.586,-20.59 -0.717,-0.718 -0.622,-0.441 -0.623,-1.479 -0.002,-19.098 -10e-4,-38.197 -10e-4,-57.296 0,-0.156 -0.002,-0.31 10e-4,-0.467 0.021,-0.657 0.4,-1.021 1.077,-1.036 0.181,-0.004 0.363,0 0.544,0 l 39.236,0 1.001,0 c 0.209,0.202 0.397,0.38 0.58,0.562 2.257,2.257 4.516,4.513 6.77,6.772 1.044,1.048 2.093,2.091 3.112,3.162 0.35,0.367 0.715,0.513 1.225,0.511 3.84,-0.021 7.681,0 11.522,-0.014 4.377,-0.017 8.544,0.887 12.493,2.783 2.855,1.371 5.396,3.192 7.703,5.35 1.386,1.295 2.697,2.66 3.87,4.153 2.391,3.045 4.064,6.436 4.881,10.232 0.048,0.225 0.078,0.454 0.118,0.694 -0.243,0.194 -0.471,0.359 -0.683,0.544 -1.215,1.061 -1.638,2.75 -1.07,4.253 0.563,1.502 2.015,2.529 3.606,2.502 2.059,-0.035 3.317,-1.427 3.7,-2.804 0.475,-1.7 -0.235,-3.472 -1.744,-4.364 -0.222,-0.131 -0.458,-0.24 -0.71,-0.372 -0.046,-0.132 -0.114,-0.274 -0.147,-0.421 -0.979,-4.454 -2.937,-8.452 -5.606,-12.129 -2.794,-3.851 -6.357,-6.807 -10.482,-9.123 -3.188,-1.792 -6.567,-3.077 -10.156,-3.804 -1.296,-0.263 -2.612,-0.406 -3.923,-0.579 -1.164,-0.155 -2.325,-0.115 -3.49,-0.12 -2.932,-0.01 -5.864,-0.003 -8.797,-0.003 l -0.489,0 c -0.222,-0.219 -0.447,-0.431 -0.666,-0.651 -3.229,-3.229 -6.457,-6.46 -9.69,-9.686 -0.689,-0.689 -0.422,-0.586 -1.414,-0.586 C 8.723,-130.002 -6.148,-130 -21.016,-130 l -0.882,0 c -0.035,0.189 -0.078,0.332 -0.087,0.481 -0.015,0.205 -0.005,0.414 -0.005,0.622 0,20.656 -0.001,41.312 0.002,61.969 0.001,1.162 -0.136,0.843 0.701,1.682 6.879,6.884 13.763,13.762 20.64,20.646 0.752,0.754 0.644,0.449 0.644,1.547 C 0.001,-29.013 0,-14.975 0,-0.936 L 0,0 Z"
           style="fill:#51accb;fill-opacity:1;fill-rule:nonzero;stroke:none"
           id="path142" /></g><g
         id="g144"
         transform="translate(315.0638,213.9812)"><path
           d="m 0,0 c 0.391,-0.578 0.744,-1.091 1.088,-1.609 1.226,-1.849 2.192,-3.823 2.839,-5.948 0.563,-1.86 1.175,-3.705 1.555,-5.619 0.481,-2.429 0.701,-4.876 0.631,-7.348 -0.102,-3.677 -0.72,-7.271 -1.812,-10.783 -1.143,-3.662 -2.786,-7.089 -4.851,-10.318 -1.68,-2.631 -3.586,-5.092 -5.787,-7.308 -2.758,-2.778 -5.872,-5.101 -9.246,-7.076 -4.379,-2.562 -9.04,-4.39 -14.019,-5.395 -1.755,-0.356 -3.526,-0.592 -5.31,-0.756 -1.321,-0.121 -2.641,-0.137 -3.964,-0.136 -1.739,0.002 -3.478,10e-4 -5.216,10e-4 l -0.784,0 c -0.576,-0.976 -1.342,-1.682 -2.42,-1.996 -0.826,-0.239 -1.635,-0.19 -2.443,0.105 -1.262,0.46 -2.558,1.836 -2.465,3.779 0.079,1.654 1.213,3.104 2.807,3.532 0.938,0.251 1.85,0.167 2.728,-0.259 0.877,-0.424 1.474,-1.124 1.903,-2.021 l 0.866,0 c 2.025,0 4.048,-0.004 6.073,0 8.216,0.016 15.749,2.295 22.606,6.818 2.523,1.664 4.81,3.605 6.933,5.755 2.736,2.771 5.036,5.855 6.893,9.275 2.06,3.801 3.402,7.842 3.997,12.123 0.221,1.593 0.351,3.197 0.344,4.808 -0.006,1.296 0.002,2.591 -0.103,3.888 -0.278,3.42 -1.105,6.693 -2.468,9.837 -0.911,2.102 -2.039,4.082 -3.341,5.965 -0.132,0.191 -0.264,0.385 -0.411,0.603 0.04,0.084 0.066,0.184 0.126,0.259 1.856,2.342 3.21,4.953 4.217,7.76 0.656,1.833 1.252,3.681 1.594,5.603 0.232,1.304 0.385,2.613 0.391,3.943 0.009,1.583 -0.029,3.165 -0.18,4.74 -0.237,2.459 -0.686,4.88 -1.413,7.241 -1.829,5.949 -4.838,11.222 -9.114,15.754 -5.444,5.771 -12.026,9.632 -19.678,11.681 -2.486,0.667 -5.018,1.08 -7.591,1.209 -1.216,0.062 -2.435,0.108 -3.652,0.109 -5.866,0.011 -11.731,0.006 -17.595,0.006 l -0.926,0 c -0.544,-0.972 -1.254,-1.698 -2.294,-2.051 -0.788,-0.267 -1.579,-0.284 -2.371,-0.045 -1.617,0.488 -2.735,1.992 -2.74,3.671 -0.004,1.651 1.073,3.152 2.64,3.67 0.953,0.317 1.893,0.26 2.807,-0.149 0.888,-0.396 1.511,-1.075 1.961,-1.957 l 0.951,0 c 6.047,0 12.092,-0.011 18.14,0.007 1.924,0.005 3.836,-0.14 5.74,-0.374 2.863,-0.353 5.676,-0.954 8.428,-1.825 5.545,-1.756 10.627,-4.384 15.188,-8.015 3.351,-2.667 6.071,-5.869 8.3,-9.507 2.93,-4.788 4.881,-9.95 5.852,-15.478 0.508,-2.893 0.772,-5.81 0.711,-8.75 C 6.071,15.253 5.704,13.133 5.077,11.065 4.586,9.453 4.033,7.861 3.478,6.271 2.777,4.272 1.702,2.469 0.502,0.735 0.341,0.503 0.182,0.268 0,0"
           style="fill:#51accb;fill-opacity:1;fill-rule:nonzero;stroke:none"
           id="path146" /></g><g
         id="g148"
         transform="translate(257.9185,201.8672)"><path
           d="m 0,0 c -0.514,-1.005 -1.221,-1.772 -2.28,-2.15 -0.806,-0.289 -1.623,-0.314 -2.444,-0.063 -1.586,0.48 -2.696,1.943 -2.733,3.597 -0.036,1.649 1.009,3.173 2.573,3.712 0.916,0.316 1.836,0.294 2.741,-0.063 C -1.263,4.684 -0.64,4.04 -0.13,3.211 0.171,3.205 0.479,3.193 0.787,3.193 c 5.889,-10e-4 11.78,0 17.67,-10e-4 1.083,0 2.155,-0.015 3.235,-0.254 1.895,-0.423 3.689,-1.035 5.28,-2.179 0.621,-0.446 1.127,-0.986 1.541,-1.626 0.831,-1.287 1.291,-2.708 1.536,-4.208 0.138,-0.846 0.242,-1.698 0.184,-2.555 -0.225,-3.273 -1.69,-5.825 -4.459,-7.612 -1.3,-0.838 -2.705,-1.423 -4.213,-1.757 -0.127,-0.027 -0.274,-0.018 -0.379,-0.081 -0.521,-0.319 -1.095,-0.246 -1.66,-0.246 -11.365,-0.001 -22.729,-0.001 -34.092,-0.001 l -1.043,0 c -0.038,0.18 -0.087,0.322 -0.094,0.468 -0.014,0.284 -0.005,0.571 -0.005,0.856 l 0,94.729 0,1.103 c -1.027,0.5 -1.769,1.233 -2.143,2.29 -0.277,0.779 -0.3,1.573 -0.065,2.371 0.478,1.625 1.944,2.764 3.642,2.772 1.849,0.007 3.161,-1.139 3.665,-2.529 0.33,-0.911 0.314,-1.833 -0.033,-2.74 -0.29,-0.761 -0.638,-1.149 -1.858,-2.117 l 0,-1.043 0,-87.802 c 0,-1.349 0.013,-2.699 -0.007,-4.047 -0.006,-0.401 0.11,-0.7 0.42,-0.947 0.149,-0.121 0.302,-0.192 0.493,-0.188 0.181,0.002 0.364,-0.002 0.544,-0.002 10.171,-10e-4 20.342,0 30.513,-10e-4 0.992,0 1.968,0.12 2.915,0.417 1.055,0.331 2.003,0.848 2.773,1.659 0.107,0.112 0.215,0.227 0.332,0.329 1.079,0.955 1.54,2.19 1.593,3.594 0.035,0.906 0.026,1.813 -0.117,2.716 -0.2,1.267 -0.737,2.332 -1.623,3.286 -1.288,1.386 -2.888,1.963 -4.702,2.111 C 20.088,0.002 19.543,0.013 18.998,0.013 12.953,0.017 6.907,0.015 0.861,0.015 0.579,0.015 0.296,0.006 0,0"
           style="fill:#51accb;fill-opacity:1;fill-rule:nonzero;stroke:none"
           id="path150" /></g><g
         id="g152"
         transform="translate(231.1864,221.6857)"><path
           d="M 0,0 C -1.987,1.311 -2.701,2.912 -2.165,4.707 -1.688,6.302 -0.243,7.39 1.421,7.444 3.193,7.501 4.668,6.351 5.179,4.834 5.78,3.046 5.141,1.464 3.225,0.082 3.219,-0.19 3.209,-0.497 3.209,-0.805 3.208,-10.147 3.208,-19.488 3.208,-28.829 l 0,-14.558 c 0,-0.182 -0.004,-0.362 0.002,-0.545 0.018,-0.611 0.399,-0.981 1.026,-0.998 0.128,-0.003 0.259,-0.002 0.389,-0.002 13.831,0 27.66,0.001 41.491,-10e-4 2.602,0 5.101,0.482 7.485,1.546 2.058,0.919 3.883,2.188 5.509,3.739 1.108,1.057 2.179,2.15 3.053,3.42 1.71,2.484 2.635,5.214 2.609,8.245 -0.008,1.011 0.016,2.025 -0.043,3.035 -0.13,2.194 -0.626,4.305 -1.572,6.299 -0.721,1.516 -1.686,2.855 -2.874,4.037 -0.055,0.054 -0.123,0.093 -0.214,0.162 -0.181,-0.047 -0.379,-0.094 -0.577,-0.147 -1.903,-0.519 -4.068,0.52 -4.686,2.686 -0.589,2.054 0.62,4.21 2.698,4.74 3.143,0.801 5.357,-2.034 4.778,-4.482 -0.047,-0.201 -0.088,-0.404 -0.139,-0.636 0.14,-0.168 0.284,-0.349 0.435,-0.523 2.675,-3.031 4.373,-6.534 5.057,-10.519 0.242,-1.406 0.408,-2.824 0.353,-4.257 -0.14,-3.638 -1.222,-6.972 -3.209,-10.022 -2.16,-3.313 -5.051,-5.823 -8.494,-7.718 -2.504,-1.377 -5.182,-2.232 -8.023,-2.571 -0.103,-0.013 -0.214,-0.009 -0.307,-0.046 -0.647,-0.257 -1.325,-0.195 -1.994,-0.195 -14.947,-0.002 -29.893,-0.002 -44.839,0 -0.334,0 -0.671,-0.035 -1.039,0.057 -0.028,0.152 -0.071,0.298 -0.079,0.444 C -0.01,-47.379 0,-47.12 0,-46.86 L 0,-1.01 0,0 Z"
           style="fill:#51accb;fill-opacity:1;fill-rule:nonzero;stroke:none"
           id="path154" /></g><g
         id="g156"
         transform="translate(250.8595,165.8205)"><path
           d="M 0,0 C 1.506,1.874 3.103,2.434 4.858,1.747 6.333,1.17 7.404,-0.273 7.304,-2.046 7.203,-3.811 6.002,-5.198 4.312,-5.588 c -1.821,-0.422 -3.329,0.353 -4.48,2.324 -0.28,0.1 -0.592,0.053 -0.898,0.053 -9.47,10e-4 -18.942,10e-4 -28.413,10e-4 -0.259,0 -0.52,-10e-4 -0.778,0.006 -0.1,0.001 -0.2,0.023 -0.344,0.042 -0.023,0.163 -0.057,0.309 -0.063,0.456 -0.009,0.259 -0.003,0.518 -0.003,0.778 0,15.283 0,30.567 -10e-4,45.85 0,0.334 -0.006,0.668 -0.009,1.021 -1.017,0.522 -1.746,1.267 -2.099,2.331 -0.261,0.787 -0.266,1.581 -0.02,2.374 0.484,1.55 1.92,2.644 3.544,2.7 1.648,0.055 3.187,-0.973 3.743,-2.528 0.336,-0.94 0.316,-1.884 -0.062,-2.813 -0.367,-0.903 -1.035,-1.54 -1.889,-2.022 l 0,-0.798 0,-42.815 c 0,-0.103 -0.002,-0.207 0.001,-0.312 0.019,-0.674 0.384,-1.039 1.058,-1.057 C -26.22,-0.003 -26.038,0 -25.856,0 L -0.946,0 0,0 Z"
           style="fill:#51accb;fill-opacity:1;fill-rule:nonzero;stroke:none"
           id="path158" /></g><g
         id="g160"
         transform="translate(257.6697,223.336)"><path
           d="m 0,0 c -0.639,-0.93 -1.433,-1.566 -2.502,-1.801 -0.809,-0.178 -1.597,-0.112 -2.362,0.215 -1.524,0.651 -2.484,2.243 -2.333,3.866 0.158,1.683 1.412,3.107 3.029,3.443 1.861,0.384 3.37,-0.436 4.495,-2.469 C 0.507,3.24 0.711,3.213 0.914,3.212 7.425,3.211 13.936,3.209 20.447,3.213 c 1.172,10e-4 2.321,0.174 3.447,0.512 1.093,0.329 1.919,1.01 2.597,1.889 0.385,0.502 0.599,1.089 0.698,1.712 0.208,1.292 0.212,2.584 -0.004,3.872 -0.149,0.889 -0.542,1.663 -1.128,2.353 -1.169,1.38 -2.672,2.107 -4.443,2.303 -0.668,0.075 -1.344,0.118 -2.016,0.12 -6.148,0.01 -12.295,0.005 -18.443,0.003 -0.308,0 -0.616,-0.007 -0.923,-0.012 -0.149,-0.226 -0.272,-0.421 -0.404,-0.611 -0.932,-1.343 -2.55,-1.961 -4.094,-1.567 -1.605,0.409 -2.763,1.715 -2.92,3.357 -0.221,2.303 1.554,4.072 3.473,4.205 1.53,0.106 2.726,-0.476 3.596,-1.734 0.088,-0.128 0.168,-0.262 0.265,-0.412 0.296,-0.089 0.607,-0.049 0.913,-0.049 5.993,-0.003 11.985,-0.019 17.977,0.012 1.202,0.008 2.369,-0.146 3.533,-0.382 1.538,-0.312 2.978,-0.872 4.329,-1.677 1.182,-0.704 2.035,-1.685 2.571,-2.932 1.22,-2.831 1.377,-5.718 0.354,-8.642 C 29.671,5.094 29.457,4.675 29.241,4.262 28.712,3.248 27.943,2.465 26.957,1.879 25.578,1.059 24.079,0.588 22.511,0.308 21.977,0.212 21.445,0.104 20.907,0.026 20.653,-0.011 20.39,0.002 20.131,0.002 13.75,0 7.368,0 0.988,0 L 0,0 Z"
           style="fill:#51accb;fill-opacity:1;fill-rule:nonzero;stroke:none"
           id="path162" /></g><g
         id="g164"
         transform="translate(309.8284,236.6225)"><path
           d="m 0,0 c 2.01,-1.21 2.756,-2.735 2.283,-4.593 -0.42,-1.652 -1.903,-2.831 -3.634,-2.891 -1.627,-0.055 -3.154,1 -3.715,2.57 -0.328,0.919 -0.303,1.836 0.057,2.738 0.361,0.902 1.011,1.555 1.855,2.019 0.065,0.684 -0.107,1.316 -0.231,1.945 -0.984,4.987 -3.213,9.33 -6.728,13.018 -2.016,2.113 -4.202,4.01 -6.695,5.541 -3.04,1.866 -6.317,3.112 -9.828,3.745 -1.895,0.342 -3.801,0.499 -5.727,0.496 -6.229,-0.009 -12.457,-0.003 -18.684,-0.003 l -0.939,0 c -0.524,-0.989 -1.258,-1.697 -2.293,-2.042 -0.811,-0.272 -1.633,-0.274 -2.447,-0.006 -1.565,0.511 -2.646,2.018 -2.641,3.667 0.005,1.655 1.078,3.134 2.666,3.645 0.922,0.295 1.841,0.253 2.735,-0.132 0.894,-0.384 1.525,-1.052 1.98,-1.923 l 0.958,0 c 6.201,0 12.404,-0.009 18.605,0.011 0.835,0.002 1.653,-0.11 2.476,-0.191 2.51,-0.244 4.975,-0.735 7.375,-1.521 4.722,-1.548 8.968,-3.922 12.651,-7.277 1.949,-1.777 3.571,-3.83 5.01,-6.03 C -2.659,9.338 -1.116,5.595 -0.296,1.558 -0.244,1.304 -0.206,1.047 -0.158,0.792 -0.11,0.538 -0.057,0.285 0,0"
           style="fill:#51accb;fill-opacity:1;fill-rule:nonzero;stroke:none"
           id="path166" /></g><g
         id="g168"
         transform="translate(212.4569,229.5366)"><path
           d="m 0,0 c 1.863,-1.284 2.543,-2.879 1.981,-4.657 -0.535,-1.693 -2.097,-2.704 -3.698,-2.696 -1.564,0.007 -3.141,1.004 -3.668,2.734 -0.281,0.929 -0.21,1.844 0.196,2.73 0.394,0.859 1.046,1.471 1.812,1.86 0.058,0.089 0.076,0.109 0.085,0.131 0.009,0.024 0.015,0.051 0.016,0.077 0.006,0.182 0.015,0.362 0.014,0.543 -10e-4,17.094 -0.003,34.189 -0.008,51.281 0,0.051 -0.023,0.1 -0.049,0.194 -0.184,0.123 -0.406,0.254 -0.61,0.408 -1.191,0.901 -1.761,2.096 -1.578,3.586 0.19,1.556 1.058,2.625 2.524,3.168 1.776,0.658 3.763,-0.116 4.669,-1.78 C 2.579,55.941 2.169,53.899 0.709,52.737 0.488,52.56 0.246,52.409 0.021,52.25 -0.067,51.663 -0.089,0.929 0,0"
           style="fill:#51accb;fill-opacity:1;fill-rule:nonzero;stroke:none"
           id="path170" /></g><g
         id="g172"
         transform="translate(295.6116,236.4573)"><path
           d="m 0,0 c -0.145,0.978 -0.414,1.867 -0.737,2.742 -0.729,1.974 -1.836,3.701 -3.313,5.21 -1.447,1.476 -3.033,2.75 -4.867,3.708 -2.068,1.083 -4.273,1.718 -6.586,1.996 -1.111,0.134 -2.222,0.162 -3.339,0.162 -5.992,-0.003 -11.984,-0.002 -17.977,-0.002 l -0.92,0 c -0.536,-0.987 -1.246,-1.711 -2.283,-2.068 -0.786,-0.272 -1.577,-0.294 -2.371,-0.059 -1.585,0.468 -2.708,1.931 -2.757,3.579 -0.048,1.654 0.981,3.161 2.546,3.731 0.946,0.345 1.882,0.313 2.807,-0.07 0.899,-0.375 1.537,-1.038 2.011,-1.903 l 0.953,0 c 6.279,0 12.556,0.001 18.835,-0.001 0.464,0 0.919,-0.014 1.383,-0.132 0.574,-0.146 1.177,-0.172 1.767,-0.265 3.867,-0.611 7.351,-2.112 10.484,-4.457 C -0.707,9.435 1.588,5.805 2.776,1.434 2.858,1.135 2.919,0.829 2.991,0.527 3.04,0.316 3.129,0.145 3.355,0.062 3.522,0 3.683,-0.094 3.832,-0.196 5.165,-1.08 5.783,-2.326 5.606,-3.914 5.438,-5.41 4.608,-6.456 3.231,-7.031 c -1.745,-0.728 -3.765,-0.031 -4.74,1.595 -0.97,1.623 -0.614,3.717 0.842,4.932 C -0.468,-0.339 -0.254,-0.192 0,0"
           style="fill:#51accb;fill-opacity:1;fill-rule:nonzero;stroke:none"
           id="path174" /></g><g
         id="g176"
         transform="translate(223.4568,240.3523)"><path
           d="m 0,0 c 0.21,-0.152 0.448,-0.309 0.671,-0.484 1.26,-0.997 1.766,-2.676 1.27,-4.2 -0.507,-1.56 -1.934,-2.632 -3.561,-2.674 -1.649,-0.042 -3.17,1 -3.728,2.555 -0.568,1.59 -0.033,3.375 1.324,4.384 0.227,0.169 0.47,0.317 0.691,0.463 0.084,0.612 0.104,40.332 0.021,41.313 -0.21,0.141 -0.453,0.288 -0.677,0.458 -1.193,0.913 -1.732,2.131 -1.541,3.611 0.188,1.449 1.003,2.487 2.351,3.058 1.767,0.75 3.824,0.035 4.791,-1.631 0.964,-1.66 0.553,-3.782 -0.969,-4.97 C 0.439,41.725 0.22,41.586 0.034,41.456 0.005,41.4 -0.007,41.379 -0.016,41.356 -0.027,41.332 -0.041,41.307 -0.042,41.283 -0.049,41.075 -0.057,40.868 -0.057,40.661 -0.055,27.167 -0.052,13.673 -0.046,0.18 -0.046,0.13 -0.023,0.079 0,0"
           style="fill:#51accb;fill-opacity:1;fill-rule:nonzero;stroke:none"
           id="path178" /></g><g
         id="g180"
         transform="translate(271.3782,212.8203)"><path
           d="m 0,0 -13.442,0 c -0.137,-0.212 -0.281,-0.455 -0.443,-0.683 -0.855,-1.192 -2.028,-1.775 -3.483,-1.655 -1.522,0.126 -2.621,0.932 -3.234,2.334 -0.772,1.764 -0.084,3.817 1.575,4.805 1.632,0.972 3.707,0.618 4.925,-0.848 0.181,-0.219 0.337,-0.458 0.498,-0.679 C -12.991,3.182 -0.996,3.153 0.126,3.243 0.261,3.428 0.405,3.64 0.561,3.842 1.581,5.164 3.317,5.678 4.886,5.125 6.431,4.583 7.449,3.139 7.449,1.49 7.449,-0.191 6.405,-1.637 4.811,-2.165 3.177,-2.704 1.399,-2.098 0.423,-0.666 0.277,-0.454 0.147,-0.232 0,0"
           style="fill:#51accb;fill-opacity:1;fill-rule:nonzero;stroke:none"
           id="path182" /></g><g
         id="g184"
         transform="translate(296.8381,217.6463)"><path
           d="m 0,0 c -0.178,-0.051 -0.374,-0.111 -0.572,-0.163 -2.16,-0.591 -4.372,0.713 -4.815,2.894 -0.472,2.317 1.052,4.26 3.123,4.606 C 0.214,7.75 2.146,5.822 2.202,3.781 2.216,3.268 2.13,2.754 2.083,2.15 c 1.762,-1.531 3.462,-3.228 4.88,-5.192 1.413,-1.959 2.607,-4.044 3.619,-6.229 0.347,-0.044 0.654,-0.08 0.96,-0.123 1.781,-0.248 3.403,-1.937 3.205,-4.129 -0.184,-2.057 -1.93,-3.595 -3.957,-3.512 -2.973,0.122 -4.679,3.313 -3.183,5.827 0.132,0.221 0.285,0.43 0.424,0.636 C 7.16,-7.749 2.82,-2.031 0,0"
           style="fill:#51accb;fill-opacity:1;fill-rule:nonzero;stroke:none"
           id="path186" /></g></g></g></svg>