<?xml version="1.0" encoding="UTF-8"?>
<svg xmlns="http://www.w3.org/2000/svg" xmlns:xlink="http://www.w3.org/1999/xlink" width="32px" height="32px" viewBox="0 0 32 32" version="1.1">
<g id="surface1">
<path style=" stroke:none;fill-rule:nonzero;fill:rgb(31.764706%,67.45098%,79.607843%);fill-opacity:1;" d="M 14.503906 1.117188 L 14.660156 1.117188 C 16.289062 1.117188 17.921875 1.117188 19.550781 1.121094 C 20.140625 1.121094 20.730469 1.164062 21.3125 1.25 C 21.664062 1.296875 22.011719 1.363281 22.359375 1.441406 C 22.710938 1.523438 23.058594 1.613281 23.398438 1.726562 C 23.972656 1.910156 24.53125 2.128906 25.074219 2.386719 C 25.738281 2.699219 26.359375 3.066406 26.945312 3.484375 C 27.339844 3.765625 27.699219 4.074219 28.050781 4.394531 C 28.410156 4.71875 28.738281 5.066406 29.042969 5.429688 C 29.363281 5.816406 29.648438 6.21875 29.902344 6.640625 C 30.070312 6.917969 30.222656 7.199219 30.363281 7.488281 C 30.566406 7.898438 30.730469 8.320312 30.859375 8.753906 C 30.929688 8.976562 30.976562 9.207031 31.035156 9.433594 C 31.121094 9.785156 31.175781 10.140625 31.199219 10.5 C 31.207031 10.644531 31.21875 10.789062 31.222656 10.933594 C 31.230469 11.238281 31.242188 11.542969 31.230469 11.847656 C 31.214844 12.378906 31.097656 12.894531 30.925781 13.398438 C 30.808594 13.734375 30.671875 14.066406 30.527344 14.394531 C 30.3125 14.878906 30.035156 15.332031 29.699219 15.757812 C 29.613281 15.863281 29.527344 15.96875 29.4375 16.082031 C 29.453125 16.105469 29.46875 16.132812 29.484375 16.152344 C 29.847656 16.597656 30.15625 17.070312 30.417969 17.574219 C 30.71875 18.144531 30.933594 18.742188 31.078125 19.363281 C 31.179688 19.800781 31.222656 20.242188 31.234375 20.683594 C 31.242188 21.007812 31.226562 21.328125 31.222656 21.648438 C 31.21875 21.972656 31.1875 22.292969 31.128906 22.609375 C 31.050781 23.050781 30.941406 23.488281 30.796875 23.917969 C 30.597656 24.507812 30.324219 25.066406 30 25.609375 C 29.679688 26.152344 29.292969 26.652344 28.871094 27.132812 C 28.464844 27.597656 28 28.007812 27.527344 28.410156 C 27.21875 28.675781 26.882812 28.914062 26.539062 29.140625 C 26.136719 29.40625 25.722656 29.648438 25.289062 29.867188 C 24.753906 30.140625 24.203125 30.375 23.632812 30.570312 C 23.015625 30.78125 22.382812 30.941406 21.738281 31.058594 C 21.429688 31.113281 21.117188 31.15625 20.808594 31.183594 C 20.378906 31.21875 19.953125 31.257812 19.527344 31.261719 C 18.667969 31.261719 17.8125 31.265625 16.957031 31.265625 C 15.394531 31.265625 13.828125 31.261719 12.265625 31.261719 C 8.75 31.257812 5.230469 31.261719 1.710938 31.261719 C 1.652344 31.261719 1.589844 31.261719 1.53125 31.257812 C 1.496094 31.253906 1.457031 31.246094 1.433594 31.230469 C 1.3125 31.140625 1.207031 31.042969 1.242188 30.878906 C 1.253906 30.84375 1.246094 30.800781 1.246094 30.761719 C 1.246094 26.394531 1.25 22.027344 1.253906 17.660156 C 1.253906 15.199219 1.246094 12.742188 1.246094 10.28125 C 1.246094 9.488281 1.253906 8.695312 1.253906 7.902344 C 1.253906 5.863281 1.253906 3.828125 1.253906 1.789062 C 1.253906 1.722656 1.253906 1.65625 1.257812 1.589844 C 1.316406 1.554688 1.375 1.523438 1.425781 1.488281 C 1.785156 1.242188 1.894531 0.789062 1.679688 0.429688 C 1.460938 0.0664062 0.988281 -0.09375 0.574219 0.0585938 C 0.257812 0.171875 0.0625 0.390625 0.0117188 0.699219 C -0.0429688 1.03125 0.0859375 1.300781 0.378906 1.5 C 0.429688 1.535156 0.488281 1.566406 0.53125 1.59375 C 0.539062 1.613281 0.539062 1.617188 0.539062 1.625 C 0.539062 1.628906 0.539062 1.632812 0.542969 1.640625 C 0.542969 1.644531 0.542969 1.652344 0.542969 1.65625 C 0.542969 1.660156 0.542969 1.667969 0.542969 1.671875 C 0.542969 1.679688 0.539062 1.683594 0.539062 1.6875 C 0.539062 1.699219 0.535156 1.710938 0.535156 1.722656 C 0.535156 1.726562 0.53125 1.734375 0.53125 1.738281 C 0.53125 1.746094 0.53125 1.75 0.53125 1.753906 C 0.53125 1.761719 0.53125 1.765625 0.53125 1.773438 C 0.53125 1.777344 0.527344 1.78125 0.527344 1.789062 C 0.527344 1.792969 0.527344 1.800781 0.527344 1.804688 L 0.527344 1.839844 C 0.527344 1.84375 0.527344 1.851562 0.527344 1.855469 L 0.527344 11.480469 C 0.527344 11.484375 0.527344 11.492188 0.527344 11.496094 L 0.527344 11.511719 C 0.527344 11.519531 0.527344 11.523438 0.53125 11.53125 C 0.53125 11.535156 0.53125 11.539062 0.53125 11.546875 C 0.53125 11.550781 0.53125 11.558594 0.53125 11.5625 C 0.53125 11.570312 0.53125 11.574219 0.53125 11.582031 C 0.535156 11.589844 0.535156 11.601562 0.539062 11.613281 C 0.539062 11.617188 0.539062 11.625 0.539062 11.628906 C 0.539062 11.636719 0.542969 11.640625 0.542969 11.644531 C 0.542969 11.652344 0.542969 11.65625 0.542969 11.664062 C 0.542969 11.667969 0.542969 11.675781 0.542969 11.679688 C 0.542969 11.683594 0.542969 11.691406 0.542969 11.695312 L 0.542969 16.574219 C 0.542969 16.582031 0.542969 16.585938 0.542969 16.59375 C 0.542969 16.597656 0.542969 16.601562 0.542969 16.609375 C 0.542969 16.613281 0.542969 16.621094 0.542969 16.625 C 0.539062 16.628906 0.539062 16.636719 0.539062 16.640625 C 0.539062 16.65625 0.535156 16.675781 0.53125 16.691406 C 0.53125 16.695312 0.53125 16.703125 0.53125 16.707031 C 0.53125 16.714844 0.53125 16.71875 0.53125 16.722656 C 0.53125 16.730469 0.53125 16.734375 0.527344 16.742188 L 0.527344 16.757812 C 0.527344 16.761719 0.527344 16.769531 0.527344 16.773438 L 0.527344 16.789062 C 0.527344 16.796875 0.527344 16.800781 0.527344 16.808594 L 0.527344 31.746094 C 0.527344 31.75 0.527344 31.753906 0.527344 31.761719 L 0.527344 31.777344 C 0.527344 31.785156 0.527344 31.789062 0.527344 31.792969 C 0.527344 31.800781 0.53125 31.804688 0.53125 31.8125 C 0.53125 31.816406 0.53125 31.820312 0.53125 31.828125 C 0.53125 31.832031 0.53125 31.839844 0.53125 31.84375 C 0.53125 31.851562 0.53125 31.855469 0.535156 31.859375 C 0.535156 31.867188 0.539062 31.871094 0.542969 31.875 C 0.546875 31.878906 0.550781 31.882812 0.5625 31.902344 C 0.617188 31.902344 0.683594 31.90625 0.75 31.90625 C 4.300781 31.914062 7.855469 31.894531 11.410156 31.917969 C 13.050781 31.929688 14.695312 31.921875 16.335938 31.917969 C 17.421875 31.917969 18.507812 31.910156 19.59375 31.90625 C 19.648438 31.90625 19.703125 31.902344 19.757812 31.898438 C 19.984375 31.886719 20.214844 31.875 20.441406 31.859375 C 20.566406 31.847656 20.691406 31.828125 20.816406 31.8125 C 20.921875 31.796875 21.03125 31.78125 21.136719 31.765625 C 21.386719 31.726562 21.636719 31.691406 21.882812 31.640625 C 22.355469 31.550781 22.824219 31.4375 23.28125 31.300781 C 23.824219 31.132812 24.359375 30.941406 24.875 30.714844 C 25.214844 30.5625 25.550781 30.398438 25.882812 30.226562 C 26.4375 29.941406 26.960938 29.617188 27.460938 29.257812 C 27.878906 28.957031 28.285156 28.640625 28.648438 28.285156 C 28.914062 28.027344 29.171875 27.761719 29.410156 27.484375 C 29.769531 27.066406 30.101562 26.632812 30.398438 26.171875 C 30.707031 25.695312 30.976562 25.203125 31.207031 24.6875 C 31.359375 24.335938 31.496094 23.980469 31.601562 23.617188 C 31.691406 23.3125 31.765625 23.003906 31.832031 22.695312 C 31.910156 22.320312 31.960938 21.9375 31.980469 21.558594 C 32 21.152344 32.007812 20.746094 31.953125 20.34375 C 31.898438 19.914062 31.839844 19.484375 31.703125 19.070312 C 31.621094 18.8125 31.65625 18.5625 31.578125 18.304688 C 31.496094 18.03125 31.386719 17.769531 31.269531 17.507812 C 31.183594 17.320312 31.070312 17.140625 30.964844 16.960938 C 30.808594 16.699219 30.617188 16.453125 30.425781 16.210938 C 30.40625 16.183594 30.382812 16.15625 30.367188 16.128906 C 30.339844 16.085938 30.339844 16.042969 30.367188 16 C 30.386719 15.972656 30.40625 15.945312 30.429688 15.917969 C 30.535156 15.777344 30.648438 15.640625 30.75 15.496094 C 30.976562 15.179688 31.179688 14.851562 31.324219 14.5 C 31.457031 14.167969 31.585938 13.832031 31.714844 13.496094 C 31.898438 13.015625 31.902344 12.519531 31.960938 12.011719 C 31.96875 11.929688 31.988281 11.84375 31.984375 11.761719 C 31.980469 11.390625 32 11.019531 31.960938 10.648438 C 31.90625 10.152344 31.851562 9.65625 31.730469 9.167969 C 31.675781 8.941406 31.628906 8.710938 31.558594 8.488281 C 31.457031 8.164062 31.351562 7.839844 31.214844 7.527344 C 31.113281 7.289062 31.015625 7.050781 30.898438 6.820312 C 30.730469 6.492188 30.554688 6.171875 30.355469 5.863281 C 30.238281 5.6875 30.128906 5.507812 30.003906 5.335938 C 29.832031 5.109375 29.65625 4.886719 29.472656 4.664062 C 29.246094 4.386719 28.992188 4.125 28.726562 3.875 C 28.414062 3.585938 28.078125 3.328125 27.726562 3.078125 C 27.394531 2.84375 27.046875 2.621094 26.691406 2.414062 C 25.945312 1.988281 25.160156 1.636719 24.34375 1.347656 C 23.9375 1.207031 23.527344 1.078125 23.109375 0.972656 C 22.707031 0.867188 22.304688 0.773438 21.894531 0.710938 C 21.601562 0.667969 21.3125 0.617188 21.019531 0.582031 C 20.738281 0.546875 20.457031 0.519531 20.175781 0.496094 C 19.941406 0.480469 19.707031 0.464844 19.472656 0.464844 C 17.878906 0.464844 16.285156 0.464844 14.691406 0.464844 L 14.46875 0.464844 C 14.355469 0.277344 14.199219 0.132812 13.980469 0.0585938 C 13.761719 -0.0195312 13.542969 -0.0195312 13.328125 0.0585938 C 12.96875 0.1875 12.738281 0.523438 12.761719 0.875 C 12.785156 1.226562 13.058594 1.53125 13.429688 1.621094 C 13.621094 1.667969 13.8125 1.65625 13.996094 1.589844 C 14.230469 1.5 14.390625 1.339844 14.503906 1.117188 M 8.277344 1.59375 L 8.277344 1.792969 C 8.277344 4.796875 8.277344 7.800781 8.277344 10.800781 C 8.277344 11.035156 8.300781 10.972656 8.128906 11.132812 C 6.527344 12.605469 4.925781 14.078125 3.328125 15.550781 C 3.132812 15.730469 3.164062 15.660156 3.164062 15.910156 C 3.164062 20.328125 3.164062 24.746094 3.164062 29.164062 C 3.164062 29.210938 3.160156 29.253906 3.164062 29.296875 C 3.167969 29.328125 3.175781 29.359375 3.1875 29.402344 L 3.390625 29.402344 C 6.847656 29.402344 10.308594 29.402344 13.765625 29.398438 C 13.996094 29.398438 13.933594 29.421875 14.09375 29.273438 C 14.84375 28.585938 15.597656 27.894531 16.347656 27.203125 C 16.398438 27.15625 16.449219 27.109375 16.5 27.0625 L 16.617188 27.0625 C 17.296875 27.0625 17.980469 27.066406 18.660156 27.0625 C 18.933594 27.0625 19.203125 27.070312 19.472656 27.039062 C 19.777344 27 20.082031 26.96875 20.386719 26.914062 C 21.21875 26.757812 22.003906 26.484375 22.746094 26.101562 C 23.707031 25.605469 24.535156 24.972656 25.183594 24.148438 C 25.804688 23.363281 26.261719 22.507812 26.488281 21.554688 C 26.496094 21.523438 26.511719 21.492188 26.523438 21.464844 C 26.582031 21.4375 26.636719 21.414062 26.6875 21.382812 C 27.039062 21.195312 27.203125 20.8125 27.09375 20.449219 C 27.003906 20.15625 26.710938 19.859375 26.234375 19.851562 C 25.863281 19.84375 25.523438 20.066406 25.394531 20.386719 C 25.261719 20.707031 25.359375 21.070312 25.644531 21.296875 C 25.691406 21.335938 25.746094 21.371094 25.800781 21.414062 C 25.792969 21.464844 25.785156 21.511719 25.773438 21.5625 C 25.585938 22.371094 25.195312 23.097656 24.640625 23.75 C 24.367188 24.070312 24.0625 24.359375 23.738281 24.636719 C 23.203125 25.097656 22.613281 25.488281 21.949219 25.78125 C 21.03125 26.1875 20.058594 26.382812 19.042969 26.378906 C 18.148438 26.375 17.257812 26.378906 16.363281 26.375 C 16.246094 26.375 16.160156 26.40625 16.078125 26.484375 C 15.839844 26.714844 15.597656 26.9375 15.355469 27.160156 C 14.832031 27.644531 14.304688 28.125 13.78125 28.609375 C 13.738281 28.648438 13.695312 28.6875 13.644531 28.730469 L 4.289062 28.730469 C 4.246094 28.730469 4.203125 28.730469 4.160156 28.730469 C 4.003906 28.726562 3.914062 28.648438 3.910156 28.507812 C 3.910156 28.472656 3.910156 28.441406 3.910156 28.40625 C 3.910156 24.320312 3.910156 20.238281 3.910156 16.152344 C 3.910156 15.929688 3.890625 15.988281 4.054688 15.835938 C 5.652344 14.367188 7.246094 12.898438 8.84375 11.429688 C 8.902344 11.375 8.960938 11.320312 9.027344 11.257812 L 9.027344 1.578125 C 9.472656 1.285156 9.625 0.945312 9.484375 0.5625 C 9.367188 0.246094 9.046875 -0.00390625 8.609375 0 C 8.21875 0.0078125 7.871094 0.257812 7.769531 0.601562 C 7.683594 0.890625 7.734375 1.308594 8.277344 1.59375 M 27.785156 16.074219 C 27.828125 16.019531 27.863281 15.96875 27.902344 15.917969 C 28.179688 15.546875 28.429688 15.160156 28.59375 14.734375 C 28.722656 14.394531 28.851562 14.054688 28.964844 13.707031 C 29.109375 13.265625 29.195312 12.8125 29.207031 12.347656 C 29.222656 11.71875 29.160156 11.097656 29.042969 10.476562 C 28.816406 9.296875 28.363281 8.191406 27.679688 7.167969 C 27.164062 6.390625 26.53125 5.703125 25.75 5.132812 C 24.6875 4.355469 23.507812 3.792969 22.21875 3.417969 C 21.578125 3.234375 20.921875 3.105469 20.257812 3.027344 C 19.816406 2.980469 19.371094 2.949219 18.921875 2.949219 C 17.515625 2.953125 16.109375 2.949219 14.703125 2.949219 L 14.484375 2.949219 C 14.378906 2.761719 14.234375 2.617188 14.027344 2.53125 C 13.816406 2.445312 13.597656 2.433594 13.375 2.5 C 13.011719 2.609375 12.757812 2.929688 12.761719 3.285156 C 12.761719 3.644531 13.023438 3.964844 13.398438 4.070312 C 13.582031 4.121094 13.765625 4.117188 13.949219 4.058594 C 14.191406 3.984375 14.355469 3.828125 14.484375 3.621094 L 14.699219 3.621094 C 16.0625 3.621094 17.425781 3.621094 18.789062 3.621094 C 19.074219 3.625 19.355469 3.632812 19.640625 3.644531 C 20.238281 3.671875 20.828125 3.761719 21.40625 3.90625 C 23.183594 4.34375 24.714844 5.167969 25.980469 6.402344 C 26.976562 7.371094 27.675781 8.5 28.101562 9.773438 C 28.269531 10.277344 28.375 10.796875 28.429688 11.320312 C 28.464844 11.660156 28.472656 11.996094 28.472656 12.335938 C 28.46875 12.621094 28.433594 12.898438 28.378906 13.179688 C 28.300781 13.589844 28.160156 13.984375 28.007812 14.378906 C 27.773438 14.976562 27.460938 15.535156 27.027344 16.039062 C 27.015625 16.054688 27.007812 16.074219 27 16.09375 C 27.035156 16.140625 27.0625 16.179688 27.09375 16.222656 C 27.398438 16.625 27.660156 17.046875 27.871094 17.496094 C 28.1875 18.171875 28.382812 18.871094 28.445312 19.601562 C 28.46875 19.878906 28.46875 20.15625 28.46875 20.433594 C 28.472656 20.777344 28.441406 21.121094 28.390625 21.460938 C 28.25 22.378906 27.9375 23.242188 27.460938 24.054688 C 27.027344 24.789062 26.492188 25.445312 25.855469 26.039062 C 25.363281 26.5 24.832031 26.914062 24.246094 27.269531 C 22.648438 28.238281 20.898438 28.726562 18.988281 28.730469 C 18.515625 28.730469 18.046875 28.730469 17.574219 28.730469 L 17.375 28.730469 C 17.273438 28.539062 17.136719 28.386719 16.929688 28.296875 C 16.726562 28.207031 16.515625 28.1875 16.296875 28.242188 C 15.925781 28.332031 15.664062 28.644531 15.644531 28.996094 C 15.621094 29.414062 15.921875 29.707031 16.21875 29.804688 C 16.40625 29.867188 16.59375 29.878906 16.785156 29.828125 C 17.035156 29.761719 17.214844 29.609375 17.347656 29.402344 L 17.53125 29.402344 C 17.933594 29.402344 18.339844 29.402344 18.742188 29.402344 C 19.050781 29.402344 19.359375 29.398438 19.664062 29.371094 C 20.082031 29.335938 20.492188 29.285156 20.902344 29.210938 C 22.058594 28.996094 23.140625 28.605469 24.160156 28.054688 C 24.945312 27.632812 25.667969 27.136719 26.3125 26.542969 C 26.824219 26.070312 27.265625 25.542969 27.65625 24.980469 C 28.136719 24.289062 28.519531 23.554688 28.785156 22.773438 C 29.039062 22.019531 29.183594 21.253906 29.207031 20.464844 C 29.222656 19.9375 29.171875 19.414062 29.058594 18.894531 C 28.972656 18.484375 28.828125 18.089844 28.699219 17.691406 C 28.546875 17.238281 28.324219 16.816406 28.039062 16.417969 C 27.957031 16.308594 27.875 16.199219 27.785156 16.074219 M 14.496094 18.667969 C 14.5625 18.664062 14.628906 18.664062 14.695312 18.664062 C 16.101562 18.664062 17.507812 18.664062 18.914062 18.664062 C 19.039062 18.664062 19.167969 18.667969 19.292969 18.675781 C 19.714844 18.707031 20.085938 18.832031 20.386719 19.128906 C 20.59375 19.332031 20.71875 19.558594 20.761719 19.832031 C 20.796875 20.023438 20.800781 20.21875 20.789062 20.410156 C 20.777344 20.710938 20.671875 20.976562 20.421875 21.179688 C 20.394531 21.203125 20.367188 21.226562 20.34375 21.25 C 20.164062 21.421875 19.945312 21.535156 19.699219 21.605469 C 19.476562 21.667969 19.25 21.695312 19.019531 21.695312 C 16.65625 21.695312 14.289062 21.695312 11.925781 21.695312 C 11.882812 21.695312 11.839844 21.691406 11.796875 21.695312 C 11.753906 21.695312 11.71875 21.679688 11.683594 21.652344 C 11.609375 21.601562 11.585938 21.535156 11.585938 21.449219 C 11.589844 21.164062 11.585938 20.875 11.585938 20.585938 L 11.585938 1.582031 C 11.871094 1.375 11.953125 1.289062 12.019531 1.128906 C 12.101562 0.933594 12.105469 0.738281 12.027344 0.542969 C 11.910156 0.246094 11.605469 0 11.175781 0 C 10.78125 0.00390625 10.4375 0.246094 10.328125 0.59375 C 10.273438 0.765625 10.277344 0.933594 10.34375 1.101562 C 10.429688 1.328125 10.601562 1.484375 10.839844 1.589844 L 10.839844 22.089844 C 10.839844 22.152344 10.839844 22.210938 10.84375 22.273438 C 10.84375 22.304688 10.855469 22.335938 10.863281 22.375 L 11.105469 22.375 C 13.75 22.375 16.390625 22.375 19.035156 22.371094 C 19.167969 22.371094 19.300781 22.386719 19.421875 22.320312 C 19.445312 22.308594 19.480469 22.308594 19.507812 22.304688 C 19.859375 22.230469 20.1875 22.105469 20.488281 21.925781 C 21.132812 21.542969 21.472656 21 21.527344 20.300781 C 21.539062 20.117188 21.515625 19.933594 21.484375 19.753906 C 21.425781 19.429688 21.320312 19.128906 21.125 18.851562 C 21.03125 18.714844 20.910156 18.597656 20.765625 18.503906 C 20.398438 18.257812 19.980469 18.128906 19.539062 18.039062 C 19.289062 17.988281 19.039062 17.984375 18.789062 17.984375 C 17.417969 17.984375 16.046875 17.984375 14.679688 17.984375 C 14.605469 17.984375 14.535156 17.980469 14.464844 17.980469 C 14.347656 17.800781 14.203125 17.664062 13.996094 17.589844 C 13.785156 17.515625 13.570312 17.507812 13.359375 17.578125 C 12.996094 17.691406 12.753906 18.019531 12.761719 18.371094 C 12.769531 18.722656 13.027344 19.039062 13.394531 19.140625 C 13.585938 19.195312 13.777344 19.1875 13.964844 19.125 C 14.210938 19.046875 14.375 18.882812 14.496094 18.667969 M 8.277344 14.425781 L 8.277344 24.449219 C 8.277344 24.507812 8.277344 24.5625 8.277344 24.617188 C 8.28125 24.648438 8.289062 24.679688 8.296875 24.710938 C 8.382812 24.730469 8.460938 24.726562 8.539062 24.726562 C 12.015625 24.726562 15.492188 24.726562 18.964844 24.726562 C 19.121094 24.726562 19.28125 24.738281 19.429688 24.683594 C 19.453125 24.675781 19.476562 24.675781 19.5 24.671875 C 20.164062 24.601562 20.785156 24.417969 21.367188 24.125 C 22.167969 23.71875 22.839844 23.179688 23.34375 22.472656 C 23.804688 21.820312 24.058594 21.105469 24.089844 20.328125 C 24.101562 20.023438 24.0625 19.71875 24.007812 19.417969 C 23.847656 18.566406 23.453125 17.816406 22.832031 17.167969 C 22.796875 17.132812 22.761719 17.09375 22.730469 17.054688 C 22.742188 17.007812 22.75 16.964844 22.761719 16.921875 C 22.898438 16.394531 22.382812 15.789062 21.652344 15.960938 C 21.167969 16.074219 20.886719 16.535156 21.023438 16.976562 C 21.167969 17.4375 21.671875 17.660156 22.113281 17.550781 C 22.160156 17.539062 22.207031 17.527344 22.246094 17.519531 C 22.269531 17.535156 22.285156 17.542969 22.296875 17.554688 C 22.574219 17.804688 22.796875 18.09375 22.964844 18.417969 C 23.1875 18.84375 23.300781 19.292969 23.332031 19.765625 C 23.34375 19.980469 23.339844 20.195312 23.339844 20.414062 C 23.347656 21.0625 23.132812 21.644531 22.734375 22.175781 C 22.53125 22.449219 22.28125 22.683594 22.023438 22.910156 C 21.648438 23.238281 21.222656 23.511719 20.742188 23.707031 C 20.1875 23.9375 19.609375 24.039062 19.003906 24.039062 C 15.785156 24.039062 12.570312 24.039062 9.355469 24.039062 C 9.324219 24.039062 9.292969 24.039062 9.261719 24.039062 C 9.117188 24.035156 9.027344 23.957031 9.023438 23.824219 C 9.023438 23.785156 9.023438 23.746094 9.023438 23.707031 L 9.023438 20.59375 C 9.023438 18.597656 9.023438 16.597656 9.023438 14.601562 C 9.023438 14.535156 9.027344 14.46875 9.027344 14.410156 C 9.472656 14.113281 9.621094 13.777344 9.484375 13.394531 C 9.363281 13.070312 9.019531 12.824219 8.609375 12.835938 C 8.222656 12.847656 7.886719 13.078125 7.773438 13.421875 C 7.648438 13.804688 7.816406 14.148438 8.277344 14.425781 M 12.851562 26.378906 L 6.839844 26.378906 C 6.796875 26.378906 6.753906 26.378906 6.714844 26.375 C 6.558594 26.371094 6.472656 26.292969 6.46875 26.148438 C 6.464844 26.128906 6.46875 26.105469 6.46875 26.082031 L 6.46875 16.753906 C 6.664062 16.652344 6.820312 16.515625 6.90625 16.324219 C 6.996094 16.125 7 15.921875 6.921875 15.71875 C 6.792969 15.386719 6.433594 15.167969 6.050781 15.179688 C 5.671875 15.191406 5.339844 15.425781 5.226562 15.757812 C 5.167969 15.925781 5.171875 16.097656 5.230469 16.265625 C 5.3125 16.492188 5.484375 16.652344 5.71875 16.765625 C 5.71875 16.839844 5.722656 16.910156 5.722656 16.980469 C 5.722656 20.25 5.722656 23.519531 5.722656 26.789062 C 5.722656 26.84375 5.71875 26.902344 5.722656 26.957031 C 5.722656 26.988281 5.730469 27.019531 5.738281 27.054688 C 5.769531 27.058594 5.792969 27.0625 5.816406 27.0625 C 5.875 27.0625 5.9375 27.0625 5.996094 27.0625 C 8.199219 27.0625 10.402344 27.0625 12.605469 27.0625 C 12.675781 27.0625 12.75 27.054688 12.8125 27.074219 C 13.082031 27.496094 13.433594 27.664062 13.855469 27.574219 C 14.25 27.488281 14.527344 27.191406 14.550781 26.816406 C 14.574219 26.433594 14.328125 26.125 13.984375 26.003906 C 13.574219 25.855469 13.203125 25.976562 12.851562 26.378906 M 14.4375 14.074219 L 14.667969 14.074219 C 16.152344 14.074219 17.632812 14.074219 19.117188 14.074219 C 19.179688 14.074219 19.238281 14.078125 19.300781 14.070312 C 19.425781 14.050781 19.546875 14.027344 19.671875 14.007812 C 20.035156 13.949219 20.386719 13.847656 20.707031 13.671875 C 20.9375 13.546875 21.113281 13.378906 21.238281 13.164062 C 21.289062 13.074219 21.335938 12.984375 21.375 12.890625 C 21.609375 12.265625 21.574219 11.648438 21.289062 11.042969 C 21.167969 10.777344 20.96875 10.566406 20.691406 10.414062 C 20.378906 10.242188 20.042969 10.125 19.6875 10.054688 C 19.414062 10.007812 19.144531 9.972656 18.863281 9.976562 C 17.472656 9.980469 16.078125 9.976562 14.683594 9.976562 C 14.613281 9.976562 14.539062 9.984375 14.472656 9.964844 C 14.449219 9.933594 14.429688 9.90625 14.410156 9.878906 C 14.207031 9.609375 13.929688 9.484375 13.574219 9.507812 C 13.128906 9.535156 12.714844 9.914062 12.765625 10.40625 C 12.800781 10.757812 13.070312 11.039062 13.445312 11.125 C 13.804688 11.210938 14.179688 11.078125 14.398438 10.789062 C 14.425781 10.75 14.457031 10.707031 14.492188 10.660156 C 14.5625 10.660156 14.632812 10.65625 14.707031 10.65625 C 16.136719 10.65625 17.566406 10.65625 18.996094 10.65625 C 19.152344 10.65625 19.308594 10.667969 19.464844 10.683594 C 19.875 10.726562 20.226562 10.878906 20.496094 11.175781 C 20.632812 11.324219 20.726562 11.488281 20.757812 11.679688 C 20.808594 11.953125 20.808594 12.230469 20.761719 12.507812 C 20.738281 12.640625 20.6875 12.765625 20.597656 12.875 C 20.441406 13.0625 20.25 13.207031 19.992188 13.277344 C 19.730469 13.351562 19.464844 13.386719 19.191406 13.386719 C 17.679688 13.386719 16.164062 13.386719 14.648438 13.386719 C 14.601562 13.386719 14.554688 13.382812 14.511719 13.378906 C 14.25 12.945312 13.902344 12.769531 13.46875 12.851562 C 13.089844 12.921875 12.800781 13.226562 12.761719 13.585938 C 12.726562 13.933594 12.953125 14.273438 13.304688 14.414062 C 13.484375 14.484375 13.667969 14.496094 13.855469 14.460938 C 14.105469 14.410156 14.289062 14.273438 14.4375 14.074219 M 26.566406 11.230469 C 26.554688 11.171875 26.542969 11.117188 26.53125 11.0625 C 26.519531 11.007812 26.511719 10.953125 26.5 10.898438 C 26.308594 10.035156 25.949219 9.234375 25.425781 8.496094 C 25.089844 8.027344 24.714844 7.585938 24.261719 7.207031 C 23.402344 6.488281 22.414062 5.980469 21.316406 5.652344 C 20.757812 5.484375 20.1875 5.378906 19.601562 5.324219 C 19.410156 5.308594 19.222656 5.285156 19.027344 5.285156 C 17.585938 5.289062 16.140625 5.285156 14.699219 5.285156 L 14.476562 5.285156 C 14.371094 5.101562 14.226562 4.957031 14.015625 4.875 C 13.808594 4.792969 13.59375 4.785156 13.378906 4.847656 C 13.011719 4.957031 12.761719 5.273438 12.761719 5.628906 C 12.757812 5.980469 13.011719 6.300781 13.375 6.410156 C 13.5625 6.46875 13.753906 6.46875 13.945312 6.410156 C 14.183594 6.335938 14.355469 6.183594 14.476562 5.972656 L 14.695312 5.972656 C 16.144531 5.972656 17.59375 5.976562 19.039062 5.972656 C 19.488281 5.972656 19.933594 6.007812 20.371094 6.078125 C 21.1875 6.214844 21.953125 6.480469 22.65625 6.878906 C 23.238281 7.207031 23.746094 7.613281 24.214844 8.066406 C 25.03125 8.855469 25.550781 9.78125 25.78125 10.851562 C 25.808594 10.984375 25.847656 11.121094 25.832031 11.265625 C 25.636719 11.367188 25.484375 11.503906 25.402344 11.699219 C 25.320312 11.890625 25.3125 12.085938 25.390625 12.285156 C 25.519531 12.621094 25.875 12.84375 26.253906 12.832031 C 26.65625 12.820312 27 12.566406 27.097656 12.214844 C 27.207031 11.816406 27.035156 11.492188 26.566406 11.230469 M 3.921875 12.746094 C 3.902344 12.550781 3.90625 1.695312 3.925781 1.570312 C 3.980469 1.539062 4.035156 1.503906 4.085938 1.46875 C 4.425781 1.21875 4.523438 0.78125 4.316406 0.433594 C 4.105469 0.0742188 3.640625 -0.0898438 3.230469 0.0507812 C 2.886719 0.167969 2.6875 0.394531 2.640625 0.730469 C 2.597656 1.046875 2.730469 1.304688 3.007812 1.496094 C 3.054688 1.527344 3.109375 1.554688 3.152344 1.582031 C 3.15625 1.601562 3.160156 1.613281 3.160156 1.625 C 3.164062 5.28125 3.164062 8.9375 3.164062 12.59375 C 3.164062 12.632812 3.160156 12.671875 3.160156 12.710938 C 3.160156 12.714844 3.160156 12.722656 3.15625 12.726562 C 3.15625 12.730469 3.152344 12.734375 3.136719 12.753906 C 2.960938 12.835938 2.808594 12.96875 2.714844 13.152344 C 2.621094 13.34375 2.605469 13.539062 2.671875 13.734375 C 2.792969 14.105469 3.160156 14.320312 3.523438 14.320312 C 3.894531 14.324219 4.257812 14.105469 4.382812 13.746094 C 4.515625 13.363281 4.355469 13.023438 3.921875 12.746094 M 23.261719 11.269531 C 23.203125 11.308594 23.152344 11.339844 23.105469 11.375 C 22.765625 11.636719 22.683594 12.082031 22.910156 12.429688 C 23.136719 12.777344 23.605469 12.925781 24.011719 12.773438 C 24.332031 12.648438 24.527344 12.425781 24.566406 12.105469 C 24.605469 11.765625 24.460938 11.5 24.152344 11.308594 C 24.117188 11.289062 24.078125 11.269531 24.039062 11.253906 C 23.988281 11.238281 23.96875 11.199219 23.957031 11.15625 C 23.941406 11.089844 23.925781 11.023438 23.90625 10.960938 C 23.628906 10.027344 23.097656 9.25 22.246094 8.664062 C 21.515625 8.164062 20.707031 7.839844 19.808594 7.710938 C 19.671875 7.691406 19.53125 7.6875 19.398438 7.652344 C 19.289062 7.628906 19.183594 7.625 19.074219 7.625 C 17.613281 7.625 16.15625 7.625 14.695312 7.625 L 14.472656 7.625 C 14.363281 7.441406 14.214844 7.300781 14.003906 7.21875 C 13.789062 7.136719 13.574219 7.128906 13.351562 7.203125 C 12.988281 7.324219 12.75 7.648438 12.761719 8 C 12.773438 8.355469 13.035156 8.667969 13.402344 8.765625 C 13.585938 8.816406 13.769531 8.8125 13.953125 8.753906 C 14.195312 8.679688 14.359375 8.523438 14.484375 8.3125 L 14.699219 8.3125 C 16.09375 8.3125 17.484375 8.3125 18.878906 8.3125 C 19.136719 8.3125 19.398438 8.316406 19.65625 8.347656 C 20.195312 8.40625 20.707031 8.542969 21.1875 8.773438 C 21.613281 8.976562 21.984375 9.25 22.320312 9.566406 C 22.664062 9.890625 22.917969 10.257812 23.089844 10.679688 C 23.164062 10.867188 23.226562 11.058594 23.261719 11.269531 M 6.480469 10.433594 C 6.476562 10.417969 6.46875 10.40625 6.46875 10.394531 C 6.46875 7.511719 6.46875 4.625 6.46875 1.738281 C 6.46875 1.691406 6.46875 1.648438 6.472656 1.605469 C 6.472656 1.597656 6.472656 1.59375 6.476562 1.589844 C 6.480469 1.582031 6.480469 1.578125 6.488281 1.566406 C 6.53125 1.539062 6.582031 1.507812 6.628906 1.476562 C 6.984375 1.222656 7.078125 0.769531 6.855469 0.414062 C 6.628906 0.0546875 6.152344 -0.0976562 5.742188 0.0625 C 5.425781 0.1875 5.238281 0.40625 5.195312 0.71875 C 5.148438 1.035156 5.277344 1.296875 5.554688 1.488281 C 5.605469 1.527344 5.660156 1.558594 5.710938 1.589844 C 5.730469 1.796875 5.726562 10.292969 5.707031 10.425781 C 5.652344 10.457031 5.597656 10.488281 5.542969 10.523438 C 5.230469 10.738281 5.105469 11.121094 5.238281 11.460938 C 5.367188 11.792969 5.71875 12.015625 6.105469 12.007812 C 6.480469 12 6.8125 11.769531 6.933594 11.4375 C 7.046875 11.109375 6.929688 10.75 6.636719 10.539062 C 6.585938 10.5 6.53125 10.46875 6.480469 10.433594 M 17.625 16.324219 C 17.660156 16.375 17.691406 16.421875 17.722656 16.464844 C 17.949219 16.773438 18.363281 16.902344 18.742188 16.785156 C 19.113281 16.675781 19.355469 16.363281 19.355469 16.003906 C 19.355469 15.652344 19.121094 15.34375 18.761719 15.226562 C 18.398438 15.109375 17.992188 15.21875 17.753906 15.503906 C 17.71875 15.546875 17.6875 15.589844 17.65625 15.628906 C 17.394531 15.648438 14.605469 15.644531 14.460938 15.625 C 14.425781 15.574219 14.386719 15.523438 14.34375 15.476562 C 14.0625 15.164062 13.578125 15.089844 13.199219 15.296875 C 12.816406 15.507812 12.652344 15.949219 12.835938 16.324219 C 12.976562 16.625 13.230469 16.796875 13.585938 16.824219 C 13.925781 16.851562 14.195312 16.726562 14.394531 16.46875 C 14.433594 16.421875 14.46875 16.371094 14.5 16.324219 Z M 23.546875 15.292969 C 24.203125 15.726562 25.210938 16.949219 25.414062 17.554688 C 25.382812 17.597656 25.347656 17.640625 25.316406 17.6875 C 24.96875 18.226562 25.363281 18.910156 26.054688 18.933594 C 26.527344 18.953125 26.933594 18.625 26.976562 18.183594 C 27.023438 17.714844 26.644531 17.355469 26.230469 17.300781 C 26.160156 17.292969 26.085938 17.285156 26.007812 17.273438 C 25.773438 16.808594 25.492188 16.359375 25.164062 15.941406 C 24.835938 15.523438 24.441406 15.160156 24.03125 14.832031 C 24.042969 14.703125 24.0625 14.59375 24.058594 14.484375 C 24.046875 14.046875 23.59375 13.632812 23.019531 13.722656 C 22.539062 13.796875 22.183594 14.210938 22.292969 14.707031 C 22.394531 15.171875 22.910156 15.453125 23.414062 15.328125 C 23.457031 15.316406 23.503906 15.300781 23.546875 15.292969 "/>
<path style=" stroke:none;fill-rule:nonzero;fill:rgb(31.764706%,67.45098%,79.607843%);fill-opacity:1;" d="M 14.503906 1.117188 C 14.390625 1.339844 14.230469 1.5 13.996094 1.589844 C 13.8125 1.65625 13.621094 1.667969 13.429688 1.621094 C 13.058594 1.53125 12.785156 1.226562 12.761719 0.875 C 12.738281 0.523438 12.96875 0.1875 13.328125 0.0585938 C 13.542969 -0.0195312 13.761719 -0.0195312 13.980469 0.0585938 C 14.199219 0.132812 14.355469 0.277344 14.46875 0.464844 L 14.691406 0.464844 C 16.285156 0.464844 17.878906 0.464844 19.472656 0.464844 C 19.707031 0.464844 19.941406 0.480469 20.175781 0.496094 C 20.457031 0.519531 20.738281 0.546875 21.019531 0.582031 C 21.3125 0.617188 21.601562 0.667969 21.894531 0.710938 C 22.304688 0.773438 22.707031 0.867188 23.109375 0.972656 C 23.527344 1.078125 23.9375 1.207031 24.34375 1.347656 C 25.160156 1.636719 25.945312 1.988281 26.691406 2.414062 C 27.046875 2.621094 27.394531 2.84375 27.726562 3.078125 C 28.078125 3.328125 28.414062 3.585938 28.726562 3.875 C 28.992188 4.125 29.246094 4.386719 29.472656 4.664062 C 29.65625 4.886719 29.832031 5.109375 30.003906 5.335938 C 30.128906 5.507812 30.238281 5.6875 30.355469 5.863281 C 30.554688 6.171875 30.730469 6.492188 30.898438 6.820312 C 31.015625 7.050781 31.113281 7.289062 31.214844 7.527344 C 31.351562 7.839844 31.457031 8.164062 31.558594 8.488281 C 31.628906 8.710938 31.675781 8.941406 31.730469 9.167969 C 31.851562 9.65625 31.90625 10.152344 31.960938 10.648438 C 32 11.019531 31.980469 11.390625 31.984375 11.761719 C 31.988281 11.84375 31.96875 11.929688 31.960938 12.011719 C 31.902344 12.519531 31.898438 13.015625 31.714844 13.496094 C 31.585938 13.832031 31.457031 14.167969 31.324219 14.5 C 31.179688 14.851562 30.976562 15.179688 30.75 15.496094 C 30.648438 15.640625 30.535156 15.777344 30.429688 15.917969 C 30.40625 15.945312 30.386719 15.972656 30.367188 16 C 30.339844 16.042969 30.339844 16.085938 30.367188 16.128906 C 30.382812 16.15625 30.40625 16.183594 30.425781 16.210938 C 30.617188 16.453125 30.808594 16.699219 30.964844 16.960938 C 31.070312 17.140625 31.183594 17.320312 31.269531 17.507812 C 31.386719 17.769531 31.496094 18.03125 31.578125 18.304688 C 31.65625 18.5625 31.71875 18.785156 31.757812 19.089844 C 31.789062 19.289062 31.863281 19.671875 31.953125 20.34375 C 32.007812 20.746094 32 21.152344 31.980469 21.558594 C 31.960938 21.9375 31.910156 22.320312 31.832031 22.695312 C 31.765625 23.003906 31.691406 23.3125 31.601562 23.617188 C 31.496094 23.980469 31.359375 24.335938 31.207031 24.6875 C 30.976562 25.203125 30.707031 25.695312 30.398438 26.171875 C 30.101562 26.632812 29.769531 27.066406 29.410156 27.484375 C 29.171875 27.761719 28.914062 28.027344 28.648438 28.285156 C 28.285156 28.640625 27.878906 28.957031 27.460938 29.257812 C 26.960938 29.617188 26.4375 29.941406 25.882812 30.226562 C 25.550781 30.398438 25.214844 30.5625 24.875 30.714844 C 24.359375 30.941406 23.824219 31.132812 23.28125 31.300781 C 22.824219 31.4375 22.355469 31.550781 21.882812 31.640625 C 21.636719 31.691406 21.386719 31.726562 21.136719 31.765625 C 21.03125 31.78125 20.921875 31.796875 20.816406 31.8125 C 20.691406 31.828125 20.566406 31.847656 20.441406 31.859375 C 20.214844 31.875 19.984375 31.886719 19.757812 31.898438 C 19.703125 31.902344 19.648438 31.90625 19.59375 31.90625 C 18.507812 31.910156 17.421875 31.917969 16.335938 31.917969 C 14.695312 31.921875 13.050781 31.929688 11.410156 31.917969 C 7.855469 31.894531 4.300781 31.914062 0.75 31.90625 C 0.683594 31.90625 0.617188 31.902344 0.5625 31.902344 C 0.550781 31.882812 0.546875 31.878906 0.542969 31.875 C 0.539062 31.871094 0.535156 31.867188 0.535156 31.859375 C 0.53125 31.855469 0.53125 31.851562 0.53125 31.84375 C 0.53125 31.839844 0.53125 31.832031 0.53125 31.828125 C 0.53125 31.820312 0.53125 31.816406 0.53125 31.8125 C 0.53125 31.804688 0.527344 31.800781 0.527344 31.792969 C 0.527344 31.789062 0.527344 31.785156 0.527344 31.777344 L 0.527344 31.761719 C 0.527344 31.753906 0.527344 31.75 0.527344 31.746094 L 0.527344 16.808594 C 0.527344 16.800781 0.527344 16.796875 0.527344 16.789062 L 0.527344 16.773438 C 0.527344 16.769531 0.527344 16.761719 0.527344 16.757812 L 0.527344 16.742188 C 0.53125 16.734375 0.53125 16.730469 0.53125 16.722656 C 0.53125 16.71875 0.53125 16.714844 0.53125 16.707031 C 0.53125 16.703125 0.53125 16.695312 0.53125 16.691406 C 0.535156 16.675781 0.539062 16.65625 0.539062 16.640625 C 0.539062 16.636719 0.539062 16.628906 0.542969 16.625 C 0.542969 16.621094 0.542969 16.613281 0.542969 16.609375 C 0.542969 16.601562 0.542969 16.597656 0.542969 16.59375 C 0.542969 16.585938 0.542969 16.582031 0.542969 16.574219 L 0.542969 11.695312 C 0.542969 11.691406 0.542969 11.683594 0.542969 11.679688 C 0.542969 11.675781 0.542969 11.667969 0.542969 11.664062 C 0.542969 11.65625 0.542969 11.652344 0.542969 11.644531 C 0.542969 11.640625 0.539062 11.636719 0.539062 11.628906 C 0.539062 11.625 0.539062 11.617188 0.539062 11.613281 C 0.535156 11.601562 0.535156 11.589844 0.53125 11.582031 C 0.53125 11.574219 0.53125 11.570312 0.53125 11.5625 C 0.53125 11.558594 0.53125 11.550781 0.53125 11.546875 C 0.53125 11.539062 0.53125 11.535156 0.53125 11.53125 C 0.527344 11.523438 0.527344 11.519531 0.527344 11.511719 L 0.527344 11.496094 C 0.527344 11.492188 0.527344 11.484375 0.527344 11.480469 L 0.527344 1.855469 C 0.527344 1.851562 0.527344 1.84375 0.527344 1.839844 L 0.527344 1.804688 C 0.527344 1.800781 0.527344 1.792969 0.527344 1.789062 C 0.527344 1.78125 0.53125 1.777344 0.53125 1.773438 C 0.53125 1.765625 0.53125 1.761719 0.53125 1.753906 C 0.53125 1.75 0.53125 1.746094 0.53125 1.738281 C 0.53125 1.734375 0.535156 1.726562 0.535156 1.722656 C 0.535156 1.710938 0.539062 1.699219 0.539062 1.6875 C 0.539062 1.683594 0.542969 1.679688 0.542969 1.671875 C 0.542969 1.667969 0.542969 1.660156 0.542969 1.65625 C 0.542969 1.652344 0.542969 1.644531 0.542969 1.640625 C 0.539062 1.632812 0.539062 1.628906 0.539062 1.625 C 0.539062 1.617188 0.539062 1.613281 0.53125 1.59375 C 0.488281 1.566406 0.429688 1.535156 0.378906 1.5 C 0.0859375 1.300781 -0.0429688 1.03125 0.0117188 0.699219 C 0.0625 0.390625 0.257812 0.171875 0.574219 0.0585938 C 0.988281 -0.09375 1.460938 0.0664062 1.679688 0.429688 C 1.894531 0.789062 1.785156 1.242188 1.425781 1.488281 C 1.375 1.523438 1.316406 1.554688 1.257812 1.589844 C 1.253906 1.65625 1.253906 1.722656 1.253906 1.789062 C 1.253906 3.828125 1.253906 5.863281 1.253906 7.902344 C 1.253906 8.695312 1.246094 9.488281 1.246094 10.28125 C 1.246094 12.742188 1.253906 15.199219 1.253906 17.660156 C 1.25 22.027344 1.246094 26.394531 1.246094 30.761719 C 1.246094 30.800781 1.253906 30.84375 1.242188 30.878906 C 1.207031 31.042969 1.3125 31.140625 1.433594 31.230469 C 1.457031 31.246094 1.496094 31.253906 1.53125 31.257812 C 1.589844 31.261719 1.652344 31.261719 1.710938 31.261719 C 5.230469 31.261719 8.75 31.257812 12.265625 31.261719 C 13.828125 31.261719 15.394531 31.265625 16.957031 31.265625 C 17.8125 31.265625 18.667969 31.261719 19.527344 31.261719 C 19.953125 31.257812 20.378906 31.21875 20.808594 31.183594 C 21.117188 31.15625 21.429688 31.113281 21.738281 31.058594 C 22.382812 30.941406 23.015625 30.78125 23.632812 30.570312 C 24.203125 30.375 24.753906 30.140625 25.289062 29.867188 C 25.722656 29.648438 26.136719 29.40625 26.539062 29.140625 C 26.882812 28.914062 27.21875 28.675781 27.527344 28.410156 C 28 28.007812 28.464844 27.597656 28.871094 27.132812 C 29.292969 26.652344 29.679688 26.152344 30 25.609375 C 30.324219 25.066406 30.597656 24.507812 30.796875 23.917969 C 30.941406 23.488281 31.050781 23.050781 31.128906 22.609375 C 31.1875 22.292969 31.21875 21.972656 31.222656 21.648438 C 31.226562 21.328125 31.242188 21.007812 31.234375 20.683594 C 31.222656 20.242188 31.179688 19.800781 31.078125 19.363281 C 30.933594 18.742188 30.71875 18.144531 30.417969 17.574219 C 30.15625 17.070312 29.847656 16.597656 29.484375 16.152344 C 29.46875 16.132812 29.453125 16.105469 29.4375 16.082031 C 29.527344 15.96875 29.613281 15.863281 29.699219 15.757812 C 30.035156 15.332031 30.3125 14.878906 30.527344 14.394531 C 30.671875 14.066406 30.808594 13.734375 30.925781 13.398438 C 31.097656 12.894531 31.214844 12.378906 31.230469 11.847656 C 31.242188 11.542969 31.230469 11.238281 31.222656 10.933594 C 31.21875 10.789062 31.207031 10.644531 31.199219 10.5 C 31.175781 10.140625 31.121094 9.785156 31.035156 9.433594 C 30.976562 9.207031 30.929688 8.976562 30.859375 8.753906 C 30.730469 8.320312 30.566406 7.898438 30.363281 7.488281 C 30.222656 7.199219 30.070312 6.917969 29.902344 6.640625 C 29.648438 6.21875 29.363281 5.816406 29.042969 5.429688 C 28.738281 5.066406 28.410156 4.71875 28.050781 4.394531 C 27.699219 4.074219 27.339844 3.765625 26.945312 3.484375 C 26.359375 3.066406 25.738281 2.699219 25.074219 2.386719 C 24.53125 2.128906 23.972656 1.910156 23.398438 1.726562 C 23.058594 1.613281 22.710938 1.523438 22.359375 1.441406 C 22.011719 1.363281 21.664062 1.296875 21.3125 1.25 C 20.730469 1.164062 20.140625 1.121094 19.550781 1.121094 C 17.921875 1.117188 16.289062 1.117188 14.660156 1.117188 Z M 14.503906 1.117188 "/>
<path style=" stroke:none;fill-rule:nonzero;fill:rgb(31.764706%,67.45098%,79.607843%);fill-opacity:1;" d="M 8.277344 1.59375 C 7.734375 1.308594 7.683594 0.890625 7.769531 0.601562 C 7.871094 0.257812 8.21875 0.0078125 8.609375 0 C 9.046875 -0.00390625 9.367188 0.246094 9.484375 0.5625 C 9.625 0.945312 9.472656 1.285156 9.027344 1.578125 L 9.027344 11.257812 C 8.960938 11.320312 8.902344 11.375 8.84375 11.429688 C 7.246094 12.898438 5.652344 14.367188 4.054688 15.835938 C 3.890625 15.988281 3.910156 15.929688 3.910156 16.152344 C 3.910156 20.238281 3.910156 24.320312 3.910156 28.40625 C 3.910156 28.441406 3.910156 28.472656 3.910156 28.507812 C 3.914062 28.648438 4.003906 28.726562 4.160156 28.730469 C 4.203125 28.730469 4.246094 28.730469 4.289062 28.730469 L 13.644531 28.730469 C 13.695312 28.6875 13.738281 28.648438 13.78125 28.609375 C 14.304688 28.125 14.832031 27.644531 15.355469 27.160156 C 15.597656 26.9375 15.839844 26.710938 16.078125 26.484375 C 16.160156 26.40625 16.246094 26.375 16.363281 26.375 C 17.257812 26.378906 18.148438 26.375 19.042969 26.378906 C 20.058594 26.382812 21.03125 26.1875 21.949219 25.78125 C 22.613281 25.488281 23.203125 25.097656 23.738281 24.636719 C 24.0625 24.359375 24.367188 24.070312 24.640625 23.75 C 25.195312 23.097656 25.585938 22.371094 25.773438 21.5625 C 25.785156 21.511719 25.792969 21.464844 25.800781 21.414062 C 25.746094 21.371094 25.691406 21.335938 25.644531 21.296875 C 25.359375 21.070312 25.261719 20.707031 25.394531 20.386719 C 25.523438 20.066406 25.863281 19.84375 26.234375 19.851562 C 26.710938 19.859375 27.003906 20.15625 27.09375 20.449219 C 27.203125 20.816406 27.039062 21.195312 26.6875 21.382812 C 26.636719 21.414062 26.582031 21.4375 26.523438 21.464844 C 26.511719 21.492188 26.496094 21.523438 26.488281 21.554688 C 26.261719 22.507812 25.804688 23.363281 25.183594 24.148438 C 24.535156 24.972656 23.707031 25.605469 22.746094 26.101562 C 22.003906 26.484375 21.21875 26.757812 20.386719 26.914062 C 20.082031 26.96875 19.777344 27 19.472656 27.039062 C 19.203125 27.070312 18.933594 27.0625 18.660156 27.0625 C 17.980469 27.066406 17.296875 27.0625 16.617188 27.0625 L 16.5 27.0625 C 16.449219 27.109375 16.398438 27.15625 16.347656 27.203125 C 15.597656 27.894531 14.84375 28.585938 14.09375 29.273438 C 13.933594 29.421875 13.996094 29.398438 13.765625 29.398438 C 10.308594 29.402344 6.847656 29.402344 3.390625 29.402344 L 3.1875 29.402344 C 3.175781 29.359375 3.167969 29.328125 3.164062 29.296875 C 3.160156 29.253906 3.164062 29.210938 3.164062 29.164062 C 3.164062 24.746094 3.164062 20.328125 3.164062 15.910156 C 3.164062 15.660156 3.132812 15.730469 3.328125 15.550781 C 4.925781 14.078125 6.527344 12.605469 8.128906 11.132812 C 8.300781 10.972656 8.277344 11.039062 8.277344 10.800781 C 8.277344 7.800781 8.277344 4.796875 8.277344 1.792969 Z M 8.277344 1.59375 "/>
<path style=" stroke:none;fill-rule:nonzero;fill:rgb(31.764706%,67.45098%,79.607843%);fill-opacity:1;" d="M 27.785156 16.074219 C 27.875 16.199219 27.957031 16.308594 28.039062 16.417969 C 28.324219 16.816406 28.546875 17.238281 28.699219 17.691406 C 28.828125 18.089844 28.972656 18.484375 29.058594 18.894531 C 29.171875 19.414062 29.222656 19.9375 29.207031 20.464844 C 29.183594 21.253906 29.039062 22.019531 28.785156 22.773438 C 28.519531 23.554688 28.136719 24.289062 27.65625 24.980469 C 27.265625 25.542969 26.824219 26.070312 26.3125 26.542969 C 25.667969 27.136719 24.945312 27.632812 24.160156 28.054688 C 23.140625 28.605469 22.058594 28.996094 20.898438 29.210938 C 20.492188 29.285156 20.082031 29.335938 19.664062 29.371094 C 19.359375 29.398438 19.050781 29.402344 18.742188 29.402344 C 18.339844 29.398438 17.933594 29.402344 17.53125 29.402344 L 17.347656 29.402344 C 17.214844 29.609375 17.035156 29.761719 16.785156 29.828125 C 16.59375 29.878906 16.40625 29.867188 16.21875 29.804688 C 15.925781 29.707031 15.621094 29.414062 15.644531 28.996094 C 15.664062 28.644531 15.925781 28.332031 16.296875 28.242188 C 16.515625 28.1875 16.726562 28.207031 16.929688 28.296875 C 17.136719 28.386719 17.273438 28.535156 17.375 28.730469 L 17.574219 28.730469 C 18.046875 28.730469 18.515625 28.730469 18.988281 28.730469 C 20.898438 28.726562 22.648438 28.238281 24.246094 27.269531 C 24.832031 26.914062 25.363281 26.5 25.855469 26.039062 C 26.492188 25.445312 27.027344 24.789062 27.460938 24.054688 C 27.9375 23.242188 28.25 22.378906 28.390625 21.460938 C 28.441406 21.121094 28.472656 20.777344 28.46875 20.433594 C 28.46875 20.15625 28.46875 19.878906 28.445312 19.601562 C 28.382812 18.871094 28.1875 18.171875 27.871094 17.5 C 27.660156 17.046875 27.398438 16.625 27.09375 16.222656 C 27.0625 16.179688 27.035156 16.140625 27 16.09375 C 27.007812 16.074219 27.015625 16.054688 27.027344 16.039062 C 27.460938 15.535156 27.773438 14.976562 28.007812 14.378906 C 28.160156 13.984375 28.300781 13.589844 28.378906 13.179688 C 28.433594 12.902344 28.46875 12.621094 28.472656 12.335938 C 28.472656 11.996094 28.464844 11.660156 28.429688 11.320312 C 28.375 10.796875 28.269531 10.277344 28.101562 9.773438 C 27.675781 8.5 26.976562 7.371094 25.980469 6.402344 C 24.714844 5.167969 23.183594 4.34375 21.40625 3.90625 C 20.828125 3.761719 20.238281 3.671875 19.640625 3.644531 C 19.355469 3.632812 19.074219 3.625 18.789062 3.621094 C 17.425781 3.621094 16.0625 3.621094 14.699219 3.621094 L 14.484375 3.621094 C 14.355469 3.828125 14.191406 3.984375 13.949219 4.058594 C 13.765625 4.117188 13.582031 4.121094 13.398438 4.070312 C 13.023438 3.964844 12.761719 3.644531 12.761719 3.285156 C 12.757812 2.929688 13.011719 2.609375 13.375 2.5 C 13.597656 2.433594 13.816406 2.445312 14.027344 2.53125 C 14.234375 2.617188 14.378906 2.761719 14.484375 2.949219 L 14.703125 2.949219 C 16.109375 2.949219 17.515625 2.953125 18.921875 2.949219 C 19.371094 2.949219 19.816406 2.980469 20.257812 3.027344 C 20.925781 3.105469 21.578125 3.234375 22.21875 3.417969 C 23.507812 3.792969 24.6875 4.355469 25.75 5.132812 C 26.53125 5.703125 27.160156 6.390625 27.679688 7.167969 C 28.363281 8.191406 28.816406 9.296875 29.042969 10.476562 C 29.160156 11.097656 29.222656 11.71875 29.207031 12.347656 C 29.195312 12.8125 29.109375 13.265625 28.964844 13.707031 C 28.851562 14.054688 28.722656 14.394531 28.59375 14.734375 C 28.429688 15.160156 28.179688 15.546875 27.902344 15.917969 C 27.863281 15.96875 27.828125 16.019531 27.785156 16.074219 "/>
<path style=" stroke:none;fill-rule:nonzero;fill:rgb(31.764706%,67.45098%,79.607843%);fill-opacity:1;" d="M 14.496094 18.667969 C 14.375 18.882812 14.210938 19.046875 13.964844 19.125 C 13.777344 19.1875 13.585938 19.195312 13.394531 19.140625 C 13.027344 19.039062 12.769531 18.722656 12.761719 18.371094 C 12.753906 18.019531 12.996094 17.691406 13.359375 17.578125 C 13.570312 17.507812 13.785156 17.515625 13.996094 17.589844 C 14.203125 17.664062 14.347656 17.800781 14.464844 17.980469 C 14.535156 17.980469 14.605469 17.984375 14.679688 17.984375 C 16.046875 17.984375 17.417969 17.984375 18.789062 17.984375 C 19.039062 17.984375 19.289062 17.988281 19.539062 18.039062 C 19.980469 18.128906 20.398438 18.257812 20.765625 18.503906 C 20.910156 18.601562 21.03125 18.714844 21.125 18.851562 C 21.320312 19.128906 21.425781 19.429688 21.484375 19.753906 C 21.515625 19.933594 21.539062 20.117188 21.527344 20.296875 C 21.472656 21 21.132812 21.542969 20.488281 21.925781 C 20.1875 22.105469 19.859375 22.230469 19.507812 22.304688 C 19.480469 22.308594 19.445312 22.308594 19.421875 22.320312 C 19.300781 22.386719 19.167969 22.371094 19.035156 22.371094 C 16.390625 22.371094 13.75 22.371094 11.105469 22.371094 L 10.863281 22.371094 C 10.855469 22.335938 10.84375 22.304688 10.84375 22.273438 C 10.839844 22.210938 10.839844 22.152344 10.839844 22.089844 L 10.839844 1.589844 C 10.601562 1.484375 10.429688 1.328125 10.34375 1.101562 C 10.277344 0.933594 10.273438 0.765625 10.328125 0.59375 C 10.4375 0.246094 10.78125 0.00390625 11.175781 0 C 11.605469 0 11.910156 0.246094 12.027344 0.542969 C 12.105469 0.738281 12.101562 0.933594 12.019531 1.128906 C 11.953125 1.289062 11.871094 1.375 11.585938 1.582031 L 11.585938 20.585938 C 11.585938 20.875 11.589844 21.164062 11.585938 21.449219 C 11.585938 21.535156 11.609375 21.601562 11.683594 21.652344 C 11.71875 21.679688 11.753906 21.695312 11.796875 21.695312 C 11.839844 21.691406 11.882812 21.695312 11.925781 21.695312 C 14.289062 21.695312 16.65625 21.695312 19.019531 21.695312 C 19.25 21.695312 19.476562 21.667969 19.699219 21.605469 C 19.945312 21.535156 20.164062 21.421875 20.34375 21.25 C 20.367188 21.226562 20.394531 21.203125 20.421875 21.179688 C 20.671875 20.976562 20.777344 20.710938 20.789062 20.410156 C 20.800781 20.21875 20.796875 20.023438 20.761719 19.832031 C 20.71875 19.558594 20.59375 19.332031 20.386719 19.128906 C 20.085938 18.832031 19.714844 18.707031 19.292969 18.675781 C 19.167969 18.667969 19.039062 18.664062 18.914062 18.664062 C 17.507812 18.664062 16.101562 18.664062 14.695312 18.664062 C 14.628906 18.664062 14.5625 18.664062 14.496094 18.667969 "/>
<path style=" stroke:none;fill-rule:nonzero;fill:rgb(31.764706%,67.45098%,79.607843%);fill-opacity:1;" d="M 8.277344 14.425781 C 7.816406 14.148438 7.648438 13.804688 7.773438 13.421875 C 7.886719 13.078125 8.222656 12.847656 8.609375 12.835938 C 9.019531 12.824219 9.363281 13.070312 9.484375 13.394531 C 9.621094 13.777344 9.472656 14.113281 9.027344 14.410156 C 9.027344 14.46875 9.023438 14.535156 9.023438 14.601562 C 9.023438 16.597656 9.023438 18.597656 9.023438 20.59375 L 9.023438 23.707031 C 9.023438 23.746094 9.023438 23.785156 9.023438 23.824219 C 9.027344 23.957031 9.117188 24.035156 9.261719 24.039062 C 9.292969 24.039062 9.324219 24.039062 9.355469 24.039062 C 12.570312 24.039062 15.785156 24.039062 19.003906 24.039062 C 19.609375 24.039062 20.1875 23.9375 20.742188 23.707031 C 21.222656 23.511719 21.648438 23.238281 22.023438 22.910156 C 22.28125 22.683594 22.53125 22.449219 22.734375 22.175781 C 23.132812 21.644531 23.347656 21.0625 23.339844 20.414062 C 23.339844 20.195312 23.34375 19.980469 23.332031 19.765625 C 23.300781 19.292969 23.1875 18.84375 22.964844 18.417969 C 22.796875 18.09375 22.574219 17.804688 22.296875 17.554688 C 22.285156 17.542969 22.269531 17.53125 22.246094 17.519531 C 22.207031 17.527344 22.160156 17.539062 22.113281 17.550781 C 21.671875 17.660156 21.167969 17.4375 21.023438 16.976562 C 20.886719 16.535156 21.167969 16.074219 21.652344 15.960938 C 22.382812 15.789062 22.898438 16.394531 22.761719 16.921875 C 22.75 16.964844 22.742188 17.007812 22.730469 17.054688 C 22.761719 17.09375 22.796875 17.128906 22.832031 17.167969 C 23.453125 17.816406 23.847656 18.566406 24.007812 19.417969 C 24.0625 19.71875 24.101562 20.023438 24.089844 20.328125 C 24.058594 21.105469 23.804688 21.820312 23.34375 22.472656 C 22.839844 23.179688 22.167969 23.71875 21.367188 24.125 C 20.785156 24.417969 20.164062 24.601562 19.5 24.671875 C 19.476562 24.675781 19.453125 24.675781 19.429688 24.683594 C 19.28125 24.738281 19.121094 24.726562 18.964844 24.726562 C 15.492188 24.726562 12.015625 24.726562 8.539062 24.726562 C 8.460938 24.726562 8.382812 24.730469 8.296875 24.710938 C 8.289062 24.679688 8.28125 24.648438 8.277344 24.617188 C 8.277344 24.5625 8.277344 24.507812 8.277344 24.449219 Z M 8.277344 14.425781 "/>
<path style=" stroke:none;fill-rule:nonzero;fill:rgb(31.764706%,67.45098%,79.607843%);fill-opacity:1;" d="M 12.851562 26.378906 C 13.203125 25.976562 13.574219 25.855469 13.984375 26.003906 C 14.324219 26.125 14.574219 26.4375 14.550781 26.816406 C 14.527344 27.191406 14.25 27.488281 13.855469 27.574219 C 13.433594 27.664062 13.082031 27.496094 12.8125 27.074219 C 12.75 27.054688 12.675781 27.0625 12.605469 27.0625 C 10.402344 27.0625 8.199219 27.0625 5.996094 27.0625 C 5.9375 27.0625 5.875 27.0625 5.816406 27.0625 C 5.792969 27.0625 5.769531 27.058594 5.738281 27.054688 C 5.730469 27.019531 5.722656 26.988281 5.722656 26.957031 C 5.71875 26.902344 5.722656 26.84375 5.722656 26.789062 C 5.722656 23.519531 5.722656 20.25 5.722656 16.980469 C 5.722656 16.910156 5.71875 16.839844 5.71875 16.765625 C 5.484375 16.652344 5.3125 16.492188 5.230469 16.265625 C 5.171875 16.097656 5.167969 15.925781 5.226562 15.757812 C 5.339844 15.425781 5.671875 15.191406 6.050781 15.179688 C 6.433594 15.167969 6.792969 15.386719 6.921875 15.71875 C 7 15.921875 6.996094 16.125 6.90625 16.320312 C 6.820312 16.515625 6.664062 16.652344 6.46875 16.753906 L 6.46875 26.082031 C 6.46875 26.105469 6.464844 26.128906 6.46875 26.152344 C 6.472656 26.292969 6.558594 26.371094 6.714844 26.375 C 6.753906 26.378906 6.796875 26.378906 6.839844 26.378906 Z M 12.851562 26.378906 "/>
<path style=" stroke:none;fill-rule:nonzero;fill:rgb(31.764706%,67.45098%,79.607843%);fill-opacity:1;" d="M 14.4375 14.074219 C 14.289062 14.273438 14.105469 14.410156 13.855469 14.460938 C 13.667969 14.496094 13.484375 14.484375 13.304688 14.414062 C 12.953125 14.273438 12.726562 13.933594 12.761719 13.585938 C 12.800781 13.226562 13.089844 12.921875 13.46875 12.851562 C 13.902344 12.769531 14.25 12.945312 14.511719 13.378906 C 14.554688 13.382812 14.601562 13.386719 14.648438 13.386719 C 16.164062 13.386719 17.679688 13.386719 19.191406 13.386719 C 19.464844 13.386719 19.730469 13.351562 19.992188 13.277344 C 20.246094 13.207031 20.441406 13.0625 20.597656 12.875 C 20.6875 12.765625 20.738281 12.640625 20.761719 12.507812 C 20.808594 12.230469 20.808594 11.953125 20.757812 11.679688 C 20.722656 11.488281 20.632812 11.324219 20.496094 11.175781 C 20.226562 10.878906 19.875 10.726562 19.464844 10.683594 C 19.308594 10.667969 19.152344 10.65625 18.996094 10.65625 C 17.566406 10.65625 16.136719 10.65625 14.707031 10.65625 C 14.632812 10.65625 14.5625 10.660156 14.492188 10.660156 C 14.457031 10.707031 14.429688 10.75 14.398438 10.789062 C 14.179688 11.078125 13.804688 11.210938 13.445312 11.125 C 13.070312 11.039062 12.800781 10.757812 12.765625 10.40625 C 12.714844 9.914062 13.128906 9.535156 13.574219 9.507812 C 13.929688 9.484375 14.207031 9.609375 14.410156 9.878906 C 14.429688 9.90625 14.449219 9.933594 14.472656 9.96875 C 14.539062 9.984375 14.613281 9.976562 14.683594 9.976562 C 16.078125 9.976562 17.472656 9.980469 18.863281 9.976562 C 19.144531 9.972656 19.414062 10.007812 19.6875 10.054688 C 20.042969 10.125 20.378906 10.242188 20.691406 10.414062 C 20.96875 10.566406 21.167969 10.777344 21.289062 11.042969 C 21.574219 11.648438 21.609375 12.265625 21.375 12.890625 C 21.335938 12.984375 21.289062 13.074219 21.238281 13.164062 C 21.113281 13.378906 20.933594 13.546875 20.707031 13.671875 C 20.386719 13.847656 20.035156 13.949219 19.671875 14.007812 C 19.546875 14.027344 19.425781 14.050781 19.300781 14.070312 C 19.238281 14.078125 19.179688 14.074219 19.117188 14.074219 C 17.632812 14.074219 16.152344 14.074219 14.667969 14.074219 Z M 14.4375 14.074219 "/>
<path style=" stroke:none;fill-rule:nonzero;fill:rgb(31.764706%,67.45098%,79.607843%);fill-opacity:1;" d="M 26.566406 11.230469 C 27.035156 11.492188 27.207031 11.816406 27.097656 12.214844 C 27 12.566406 26.65625 12.820312 26.253906 12.832031 C 25.875 12.84375 25.519531 12.621094 25.390625 12.285156 C 25.3125 12.085938 25.320312 11.890625 25.402344 11.699219 C 25.484375 11.503906 25.636719 11.363281 25.832031 11.265625 C 25.847656 11.121094 25.808594 10.984375 25.78125 10.851562 C 25.550781 9.78125 25.03125 8.855469 24.214844 8.066406 C 23.746094 7.613281 23.238281 7.207031 22.65625 6.878906 C 21.953125 6.480469 21.1875 6.214844 20.371094 6.078125 C 19.933594 6.007812 19.488281 5.972656 19.039062 5.972656 C 17.59375 5.976562 16.144531 5.972656 14.695312 5.972656 L 14.476562 5.972656 C 14.355469 6.183594 14.183594 6.335938 13.945312 6.410156 C 13.753906 6.46875 13.5625 6.46875 13.375 6.410156 C 13.011719 6.300781 12.757812 5.980469 12.761719 5.628906 C 12.761719 5.273438 13.011719 4.957031 13.378906 4.847656 C 13.59375 4.785156 13.808594 4.792969 14.015625 4.875 C 14.226562 4.957031 14.371094 5.101562 14.476562 5.289062 L 14.699219 5.289062 C 16.140625 5.289062 17.585938 5.289062 19.027344 5.285156 C 19.222656 5.285156 19.410156 5.308594 19.601562 5.324219 C 20.1875 5.378906 20.757812 5.484375 21.316406 5.652344 C 22.414062 5.980469 23.402344 6.488281 24.261719 7.207031 C 24.714844 7.585938 25.089844 8.027344 25.425781 8.496094 C 25.949219 9.234375 26.308594 10.035156 26.5 10.898438 C 26.511719 10.953125 26.519531 11.007812 26.53125 11.0625 C 26.542969 11.117188 26.554688 11.171875 26.566406 11.230469 "/>
<path style=" stroke:none;fill-rule:nonzero;fill:rgb(31.764706%,67.45098%,79.607843%);fill-opacity:1;" d="M 3.921875 12.75 C 4.355469 13.023438 4.515625 13.363281 4.382812 13.746094 C 4.257812 14.105469 3.894531 14.324219 3.523438 14.320312 C 3.160156 14.320312 2.792969 14.105469 2.671875 13.734375 C 2.605469 13.539062 2.621094 13.339844 2.714844 13.152344 C 2.808594 12.96875 2.957031 12.835938 3.136719 12.753906 C 3.152344 12.734375 3.15625 12.730469 3.15625 12.726562 C 3.160156 12.722656 3.160156 12.714844 3.160156 12.710938 C 3.160156 12.671875 3.164062 12.632812 3.164062 12.59375 C 3.164062 8.9375 3.164062 5.28125 3.160156 1.625 C 3.160156 1.613281 3.15625 1.601562 3.152344 1.582031 C 3.109375 1.558594 3.054688 1.527344 3.007812 1.496094 C 2.730469 1.304688 2.597656 1.046875 2.640625 0.730469 C 2.6875 0.394531 2.886719 0.167969 3.230469 0.0507812 C 3.640625 -0.0898438 4.105469 0.0742188 4.316406 0.433594 C 4.523438 0.78125 4.425781 1.21875 4.085938 1.46875 C 4.035156 1.503906 3.980469 1.539062 3.925781 1.570312 C 3.90625 1.695312 3.902344 12.550781 3.921875 12.75 "/>
<path style=" stroke:none;fill-rule:nonzero;fill:rgb(31.764706%,67.45098%,79.607843%);fill-opacity:1;" d="M 23.261719 11.269531 C 23.226562 11.058594 23.164062 10.867188 23.089844 10.679688 C 22.917969 10.257812 22.664062 9.890625 22.320312 9.566406 C 21.980469 9.25 21.613281 8.980469 21.1875 8.773438 C 20.707031 8.542969 20.191406 8.40625 19.65625 8.347656 C 19.398438 8.316406 19.136719 8.3125 18.878906 8.3125 C 17.484375 8.3125 16.09375 8.3125 14.699219 8.3125 L 14.484375 8.3125 C 14.359375 8.523438 14.195312 8.679688 13.953125 8.753906 C 13.769531 8.8125 13.585938 8.816406 13.402344 8.765625 C 13.035156 8.667969 12.773438 8.355469 12.761719 8 C 12.75 7.648438 12.988281 7.324219 13.351562 7.203125 C 13.574219 7.128906 13.789062 7.136719 14.003906 7.21875 C 14.214844 7.300781 14.363281 7.441406 14.472656 7.625 L 14.695312 7.625 C 16.15625 7.625 17.613281 7.625 19.074219 7.625 C 19.183594 7.625 19.289062 7.628906 19.398438 7.652344 C 19.53125 7.683594 19.671875 7.691406 19.808594 7.710938 C 20.707031 7.839844 21.515625 8.164062 22.246094 8.664062 C 23.097656 9.25 23.628906 10.027344 23.90625 10.960938 C 23.925781 11.023438 23.941406 11.089844 23.957031 11.15625 C 23.96875 11.199219 23.988281 11.238281 24.039062 11.253906 C 24.078125 11.269531 24.117188 11.289062 24.152344 11.308594 C 24.460938 11.5 24.605469 11.765625 24.566406 12.105469 C 24.527344 12.425781 24.332031 12.648438 24.011719 12.773438 C 23.605469 12.925781 23.136719 12.777344 22.910156 12.429688 C 22.683594 12.082031 22.765625 11.636719 23.105469 11.375 C 23.152344 11.339844 23.203125 11.308594 23.261719 11.269531 "/>
<path style=" stroke:none;fill-rule:nonzero;fill:rgb(31.764706%,67.45098%,79.607843%);fill-opacity:1;" d="M 6.480469 10.433594 C 6.53125 10.46875 6.585938 10.5 6.636719 10.539062 C 6.929688 10.75 7.046875 11.109375 6.933594 11.4375 C 6.8125 11.769531 6.480469 12 6.105469 12.007812 C 5.71875 12.015625 5.367188 11.792969 5.238281 11.460938 C 5.105469 11.121094 5.230469 10.738281 5.542969 10.523438 C 5.597656 10.488281 5.652344 10.457031 5.707031 10.425781 C 5.726562 10.292969 5.730469 1.796875 5.710938 1.589844 C 5.660156 1.558594 5.605469 1.527344 5.554688 1.488281 C 5.277344 1.292969 5.148438 1.035156 5.195312 0.71875 C 5.238281 0.40625 5.429688 0.1875 5.742188 0.0625 C 6.152344 -0.0976562 6.628906 0.0546875 6.855469 0.414062 C 7.078125 0.769531 6.984375 1.222656 6.628906 1.476562 C 6.582031 1.507812 6.53125 1.539062 6.488281 1.566406 C 6.480469 1.578125 6.480469 1.582031 6.476562 1.589844 C 6.472656 1.59375 6.472656 1.597656 6.472656 1.605469 C 6.46875 1.648438 6.46875 1.691406 6.46875 1.738281 C 6.46875 4.625 6.46875 7.511719 6.46875 10.394531 C 6.46875 10.40625 6.476562 10.417969 6.480469 10.433594 "/>
<path style=" stroke:none;fill-rule:nonzero;fill:rgb(31.764706%,67.45098%,79.607843%);fill-opacity:1;" d="M 17.625 16.324219 L 14.5 16.324219 C 14.46875 16.367188 14.433594 16.421875 14.394531 16.46875 C 14.195312 16.726562 13.925781 16.847656 13.585938 16.824219 C 13.230469 16.796875 12.976562 16.625 12.832031 16.324219 C 12.65625 15.949219 12.8125 15.507812 13.199219 15.296875 C 13.578125 15.089844 14.0625 15.164062 14.34375 15.476562 C 14.386719 15.523438 14.425781 15.578125 14.460938 15.625 C 14.605469 15.644531 17.394531 15.648438 17.65625 15.628906 C 17.6875 15.589844 17.71875 15.546875 17.753906 15.503906 C 17.992188 15.21875 18.398438 15.109375 18.761719 15.226562 C 19.121094 15.34375 19.355469 15.652344 19.355469 16.003906 C 19.355469 16.363281 19.113281 16.675781 18.742188 16.785156 C 18.363281 16.902344 17.949219 16.773438 17.722656 16.464844 C 17.691406 16.421875 17.660156 16.375 17.625 16.324219 "/>
<path style=" stroke:none;fill-rule:nonzero;fill:rgb(31.764706%,67.45098%,79.607843%);fill-opacity:1;" d="M 23.546875 15.292969 C 23.503906 15.300781 23.460938 15.316406 23.414062 15.328125 C 22.910156 15.453125 22.394531 15.175781 22.292969 14.707031 C 22.183594 14.210938 22.539062 13.796875 23.019531 13.722656 C 23.597656 13.632812 24.046875 14.046875 24.058594 14.484375 C 24.0625 14.59375 24.042969 14.703125 24.03125 14.832031 C 24.441406 15.160156 24.835938 15.523438 25.164062 15.941406 C 25.492188 16.359375 25.773438 16.808594 26.007812 17.273438 C 26.085938 17.285156 26.160156 17.292969 26.230469 17.300781 C 26.644531 17.355469 27.023438 17.714844 26.976562 18.183594 C 26.933594 18.625 26.527344 18.953125 26.054688 18.933594 C 25.363281 18.910156 24.96875 18.226562 25.316406 17.6875 C 25.347656 17.640625 25.382812 17.597656 25.414062 17.554688 C 25.210938 16.949219 24.203125 15.726562 23.546875 15.292969 "/>
</g>
</svg>
